<svg id="Layer_1" data-name="Layer 1" xmlns="http://www.w3.org/2000/svg" viewBox="0 0 252.14 130.05"><title>citizencard-sdk</title><path d="M249.52,30.1,252,22.66a3,3,0,0,0-1.88-3.8l-53-18a3,3,0,0,0-3.8,1.88l-8,23.78h6.32l5.72-17.68a2,2,0,0,1,2.56-1.26l44,14.91a2,2,0,0,1,1.26,2.56l-.6,2a7.36,7.36,0,0,1,2.84,1.23A7.24,7.24,0,0,1,249.52,30.1Zm-16.8,31.73L212,122.64a2,2,0,0,1-2.56,1.26l-44-14.91a2,2,0,0,1-1.26-2.56l1.67-4.86h-6.08l-2.48,7.27a3,3,0,0,0,1.88,3.8l53,18a3,3,0,0,0,3.8-1.88l22.75-66.9Zm-58.44-3.07-2.64,7.95a13.57,13.57,0,0,1,2.85.85A15.54,15.54,0,0,1,176.94,69l3.4-10.19Z" transform="translate(0.01 -0.72)" fill="#fff"/><g id="Rounded_Rectangle_3_copy_3" data-name="Rounded Rectangle 3 copy 3"><path d="M0,44c0,9.28,2.56,14.88,10,15a32.2,32.2,0,0,0,10.2-1.12V53.53s-4.68.32-8.88.32c-4.6,0-5.68-3.16-5.68-9.72,0-8.88,1.56-9.8,5.68-9.8,3.92,0,8.84.56,8.88.56v-4.4A34.3,34.3,0,0,0,10,29.17C2,29.17,0,34.69,0,44ZM24,58.77h5.6V29.49H24Zm9-24.12h7.92V58.77h5.6V34.65h8.12V29.49H33v5.16ZM58.31,58.77h5.6V29.49h-5.6Zm8.84,0H87.31V53.61H74.55l12.76-19V29.49H67.15v5.16h13.4l-13.4,19v5.16ZM91,53c0,5.4,4.16,6,6.76,5.88,0,0,10.2-.36,12.48-.68v-4.6H99.11c-1.16,0-2.48,0-2.48-2.08V47l11.84-.36V42l-11.84-.4V37c0-1.08,0-2.24,2.08-2.24h11.56V30.13c-2.56-.36-12.88-.64-12.88-.64-2.76,0-6.36,1-6.36,6.08V53Zm23.2,5.76h5.64V40l11.64,18.72h5.6V29.49h-5.6V48.41l-11.6-18.92h-5.68V58.77ZM151.39,44c0,9.28,2.56,14.88,10,15a32.2,32.2,0,0,0,10.2-1.12V53.53s-4.68.32-8.88.32c-4.6,0-5.68-3.16-5.68-9.72,0-8.88,1.56-9.8,5.68-9.8,3.92,0,8.84.56,8.88.56v-4.4a34.3,34.3,0,0,0-10.2-1.32c-8,0-10,5.52-10,14.88Zm32.52,3.28,3.52-10.48,3.28,10.48h-6.8Zm-9.6,11.44h6l2.12-6.48H192l2.08,6.48h6l-9.52-29.28h-6.36Zm34.4-16V34.45h6.64c1.76,0,2.88.84,2.88,4.16,0,3.56-1,4.12-2.88,4.12Zm-5.64,16h5.6V47.13l4.92.56,4.84,11.08h6.32l-5.56-11.52c1.64-.52,4.68-1.4,4.68-8.64,0-7-3.4-9.12-8-9.12h-12.8V58.77Zm30.68-5V34.45h6.4c3.12,0,5,1.92,5,9.76,0,5.88-1.36,9.56-5,9.56Zm-5.6,5h12.44c7.12,0,10.16-5.92,10.16-14.52,0-7.24-1.76-14.76-10.16-14.76H228.15ZM.52,98.77h3l1.6-23.92,7.76,23.92h3L23.4,74.85l1.8,23.92h3L25.92,69.49h-4L14.31,93.85,6.51,69.49H2.43Zm35.4-10.32c0-7.64,1.92-8.16,6.4-8.16,4.68,0,6.4.56,6.4,8.16,0,7-2.08,7.56-6.4,7.56-4.12,0-6.4-.48-6.4-7.56Zm-3,0C33,96,35.16,99,42.32,99s9.36-2.64,9.36-10.52c0-8.44-2.2-11.12-9.36-11.12-7,0-9.36,2.44-9.36,11.12Zm27,5.76v-13a27.72,27.72,0,0,1,7.84-1c2.56,0,4,1.56,4,8.08,0,5.2-1.44,7.8-4,7.8A20,20,0,0,1,60,94.21Zm-2.92,4.56H59.2l.8-2.36A18.16,18.16,0,0,0,67.84,99c5.8,0,7-5.88,7-10.76,0-5.44-1-11-7-11A24.8,24.8,0,0,0,60,78.81V67.37H57.07v31.4Zm23.16,0h3V77.53h-3Zm-.4-24.68a.89.89,0,0,0,.86.92h2.1a.84.84,0,0,0,.92-.92V71.93a.9.9,0,0,0-.79-1H80.8a.9.9,0,0,0-1,1Zm9.28,17.12c0,5.64,2.2,7.56,5.28,7.56h3.52V96.65c-.28,0-3.56-.84-3.56-.84-1.36-.32-2.28-1.12-2.28-4.6V67.45h-3V91.21Zm13.56-4.36c0-6.48,1.84-6.52,6.36-6.52,4.32,0,5.12.36,5.12,4.56,0,1.32-.76,2-2.52,2h-9Zm-3,1.2c0,8.32,1.6,10.92,7,10.92a36.73,36.73,0,0,0,10-1.12V95.61a71.44,71.44,0,0,1-10,.4c-3.12,0-4-1.24-4-6.24h9c3.84,0,5.48-1.8,5.48-4.88,0-7-3.12-7.52-8.12-7.52-6.56,0-9.28,1.2-9.28,10.68Zm33.6-9c0,3.36.72,6.88,7.12,6.88H146c2.6,0,3.28,1.64,3.28,3.92v2.72c0,3.52-3.48,3.6-5.12,3.6-3.72,0-8.4-.28-10-.44v2.4c1.84.32,8,1,10,1,4,0,8.08-.88,8.08-6.56V89.81c0-3.28-.92-6.88-6.24-6.88h-5.68c-2.4,0-4.08-.28-4.08-3.92V76.37c0-4,2.16-4.28,5-4.16,0,0,7.44.24,10,.4v-2.4c-1.52-.2-7.88-1-10-1-4.48,0-7.92,1.32-7.92,7.12V79Zm27.92,16.68V72.45h7.92c4.64,0,7.44,3.2,7.44,11.76,0,6.16-2.16,11.48-7.44,11.48Zm-3,3.08h10.88c7.72,0,10.4-7.88,10.4-14.52,0-6-1.4-14.76-10.4-14.76H158.27V98.77Zm27.28,0h3V85.57h3.24l9.2,13.2h3.6L194.52,84.09l10.08-14.6H201l-9.2,13.12h-3.28V69.49h-3V98.77Z" transform="translate(0.01 -0.72)" fill="#fff"/></g></svg>