<svg xmlns="http://www.w3.org/2000/svg" viewBox="0 0 291.51 46">
  <title>logo-livesoccer</title>
  <path d="M179.76,7.63c-1.43-1-4.15-2.6-11.65,2.05.46-.15.9-.27,1.33-.37,5.75-3.12,8-1.82,9.24-.91,9.82,9-31.59,42-42.17,35.31-2.09-.52-2.33-2.71.11-6.64-1.41.51-3.51,5-2.18,6.75,2.5,3.35,8.31,2.58,15-.45A18.44,18.44,0,0,0,175,26.28a18.69,18.69,0,0,0-.11-2C180.7,17.59,183.6,11.06,179.76,7.63ZM156.48,44.15A17.72,17.72,0,0,1,150.1,43h0l.66-.32c.45.13.94.25,1.54.38a16.51,16.51,0,0,0,4.79.47c-.14-.29-.37-1.12-.5-1.53a13,13,0,0,0-.95-2c2.3-1.38,4.63-2.94,6.88-4.62a11,11,0,0,0,4.38-.55c.51.77,2,3.19,1.7,4.63l.8-.79c.35-1.46-1.09-4-1.44-4.52l.12,0a11,11,0,0,0,2.18-4.81l.07-.34,0-.13c1.4-1.32,2.71-2.66,3.91-4h0c0,.47.06.95.06,1.43A17.88,17.88,0,0,1,156.48,44.15Z" transform="translate(0.01 0)" style="fill: #f60"/>
  <path d="M284.86,29.12a10.59,10.59,0,0,0,5-4.19,12.13,12.13,0,0,0,1.67-6.44q0-4.76-3.16-7.12T279.25,9h-9.12l-7.28,34.6h9.21L274.72,31h1.72L281,43.6h10l-.94-2.27ZM281,22.69A4.87,4.87,0,0,1,277.41,24h-1.2l1.65-7.9h1.25a3.32,3.32,0,0,1,2.37.77,2.93,2.93,0,0,1,.81,2.24A4.82,4.82,0,0,1,281,22.69Z" transform="translate(0.01 0)" style="fill: #fff"/>
  <polygon points="251.9 16.5 250.79 21.94 261.26 21.94 259.56 29.45 249.1 29.45 247.75 35.98 259 35.98 257.39 43.6 236.94 43.6 244.22 9 264.67 9 263.14 16.5 251.9 16.5" style="fill: #fff"/>
  <path d="M231.54,16.82a11.35,11.35,0,0,0-3.82-.65,6.7,6.7,0,0,0-4.6,1.85,12.29,12.29,0,0,0-3.22,5.09,20.64,20.64,0,0,0-1.17,7,7.2,7.2,0,0,0,1.32,4.73,4.69,4.69,0,0,0,3.79,1.56,16.75,16.75,0,0,0,4-.49,30.65,30.65,0,0,0,4.71-1.65v7.64a25.2,25.2,0,0,1-10.37,2.13q-6.13,0-9.44-3.51t-3.31-10a27.56,27.56,0,0,1,2.39-11.55,18.07,18.07,0,0,1,6.5-7.93,16.89,16.89,0,0,1,9.41-2.67,21.37,21.37,0,0,1,11.33,3.1l-3.49,7.22A23.25,23.25,0,0,0,231.54,16.82Z" transform="translate(0.01 0)" style="fill: #fff"/>
  <path d="M202.83,16.82a11.35,11.35,0,0,0-3.82-.65,6.7,6.7,0,0,0-4.6,1.85,12.28,12.28,0,0,0-3.22,5.09,20.61,20.61,0,0,0-1.17,7,7.2,7.2,0,0,0,1.32,4.73,4.69,4.69,0,0,0,3.79,1.56,16.74,16.74,0,0,0,4-.49,30.61,30.61,0,0,0,4.71-1.65v7.64a25.2,25.2,0,0,1-10.37,2.13q-6.13,0-9.44-3.51t-3.31-10a27.54,27.54,0,0,1,2.39-11.55,18.07,18.07,0,0,1,6.5-7.93A16.89,16.89,0,0,1,199,8.46a21.37,21.37,0,0,1,11.33,3.1l-3.49,7.22A23.25,23.25,0,0,0,202.83,16.82Z" transform="translate(0.01 0)" style="fill: #fff"/>
  <path d="M167.6,31.43l0,0Z" transform="translate(0.01 0)" style="fill: #f60"/>
  <path d="M168.55,30.59l.05,0Z" transform="translate(0.01 0)" style="fill: #f60"/>
  <path d="M169.49,29.74l0,0Z" transform="translate(0.01 0)" style="fill: #f60"/>
  <path d="M172.73,18.76a17.83,17.83,0,0,0-.84-1.61l0,.05-.07-.13,0,0a17.81,17.81,0,0,0-21.52-7.5l-1,.35h0l.59-.19a17.85,17.85,0,0,0-5.6,3.63l.05-.16-1,1.14a.51.51,0,0,0-.33.38,17.89,17.89,0,0,0-4.26,11.62c0,.58,0,1.16.08,1.73a1.32,1.32,0,0,0-.08.18l.14,1.12v.1s.05,0,.11-.1A17.93,17.93,0,0,0,146.29,41l-.57.29a18.46,18.46,0,1,1,27.4-23Z" transform="translate(0.01 0)" style="fill: #f60"/>
  <path d="M166.7,13.3s2.68.08,5.19,3.84l-.07-.12a12.37,12.37,0,0,0-3.26-3.69,5.92,5.92,0,0,0-1.94-.72A16.13,16.13,0,0,0,164,10.52a8.73,8.73,0,0,0-2.15-.89,4.59,4.59,0,0,0-1.27-.33c-1.27-.16-3.32-.76-5.38,0a4.66,4.66,0,0,0-1.25-.41,10.09,10.09,0,0,0-3.65.67l-.44.18a8.42,8.42,0,0,1,5.5.51l.08.26c.23.77.46,1.24.69,2-4,1.27-6.33,4.62-6.49,5.28l-.42,0a10.62,10.62,0,0,0-4.88.81,9.34,9.34,0,0,1-.08-5.2A18,18,0,0,0,143,14.68a8.94,8.94,0,0,0,.38,4.41c-.13.23-.18.54-.35.92a13.28,13.28,0,0,0-1.29,5.68A5.51,5.51,0,0,0,138.79,28c0,.44.1.87.17,1.3a7.24,7.24,0,0,1,3.14-2.59,11.14,11.14,0,0,0,3.71,3.16,13,13,0,0,0,1.77,7.48c-.89.75-1.31,1.28-2.19,2.09a13,13,0,0,0,1.16,1.13l.19.13c1.27-.68,2.61-1.46,4-2.36a11,11,0,0,1-1.9-1A14.36,14.36,0,0,1,147,29.46l1.32-1.14c1.06-.91,2.12-1.23,3.18-2.14l0,0a34.57,34.57,0,0,1,9.29,3.43,9.58,9.58,0,0,1,.19,1c2.66-2.28,4.91-4.36,6.79-6.26-.5-.31-1.06-.64-1.72-1l-.09,0c.21-2.77-1.51-7-1.91-8.17.93-.64,1.42-1.28,2.35-1.92v0Zm-1.78,10.57c-1.54,1.47-2.34,2.76-4.07,4.29-.68-.77-7.9-3-8.77-3.22l-1-4.21c-.23-.93-.24-1.49-.47-2.42a10.73,10.73,0,0,1,6-4.95,22.87,22.87,0,0,1,6.3,1.43C163.2,15.83,165.09,21.06,164.91,23.87Z" transform="translate(0.01 0)" style="fill: #f60"/>
  <path d="M125.64,9.29a4.46,4.46,0,0,0-2.88.82,2.93,2.93,0,0,0-1,2.41,4.27,4.27,0,0,0,1,2.69,21.75,21.75,0,0,0,3.73,3.34,18.81,18.81,0,0,1,5.12,5.38,12.46,12.46,0,0,1,1.67,6.47q0,6.53-4.3,10.16t-12,3.63a24.93,24.93,0,0,1-6.09-.72,15.81,15.81,0,0,1-4.95-2.1V31.08a25.6,25.6,0,0,0,5.64,2.62,18.39,18.39,0,0,0,5.75,1.06,5.08,5.08,0,0,0,3.28-.91,3.15,3.15,0,0,0,1.11-2.59,3.23,3.23,0,0,0-.35-1.49,6.15,6.15,0,0,0-1-1.38q-.64-.69-3.45-3a19.16,19.16,0,0,1-5-5.64,13.11,13.11,0,0,1-1.55-6.32,12.6,12.6,0,0,1,7.33-11.69A17.78,17.78,0,0,1,125.52,0a25.22,25.22,0,0,1,12.59,3.15l-4,8.73Q129.15,9.3,125.64,9.29Z" transform="translate(0.01 0)" style="fill: #fff"/>
  <polygon points="93.28 16.5 92.17 21.94 102.63 21.94 100.93 29.45 90.47 29.45 89.13 35.98 100.37 35.98 98.77 43.6 78.31 43.6 85.59 9 106.05 9 104.52 16.5 93.28 16.5" style="fill: #fff"/>
  <path d="M53.73,43.6,51.28,9h9l.64,19v1.21a43.46,43.46,0,0,1-.38,6.06h.19q.33-1.51,1-3.73a29.32,29.32,0,0,1,1.31-3.44L71.33,9h9.75L64,43.6Z" transform="translate(0.01 0)" style="fill: #fff"/>
  <polygon points="31.35 43.6 38.63 9 47.98 9 40.7 43.6 31.35 43.6" style="fill: #fff"/>
  <polygon points="25.41 43.6 0 43.6 9.04 0.62 20.49 0.62 13.44 34.22 27.4 34.22 25.41 43.6" style="fill: #fff"/>
</svg>
