<svg xmlns="http://www.w3.org/2000/svg" viewBox="0 0 1463.98 421.73">
  <title>logo-phune</title>
  <g>
    <g>
      <path d="M1480.15,252.78V182.16l-25.37-25.37H1320.15V291.41l25.37,25.37h102.63l-34-32h-55.37l-6.63-6.63V252.78Zm-128-64h89.37l6.63,6.63v25.37h-96Z" transform="translate(-16.17 -39.96)" style="fill: #fff"/>
      <polygon points="759.98 116.83 759.98 80.82 727.98 52.83 727.98 276.82 759.98 276.82 759.98 148.83 849.35 148.83 855.98 155.45 855.98 276.82 887.98 276.82 887.98 142.2 862.61 116.83 759.98 116.83" style="fill: #fff"/>
      <path d="M552.15,156.78v192l32,32v-64H686.78l25.37-25.37V182.16l-25.37-25.37Zm128,121.37-6.63,6.63H584.15v-96h89.37l6.63,6.63Z" transform="translate(-16.17 -39.96)" style="fill: #fff"/>
      <polygon points="1111.98 116.83 1111.98 276.83 1143.98 276.83 1143.98 148.83 1233.35 148.83 1239.98 155.45 1239.98 276.83 1271.98 276.83 1271.98 142.2 1246.61 116.83 1111.98 116.83" style="fill: #fff"/>
      <polygon points="1047.98 244.83 958.61 244.83 951.98 238.2 951.98 116.83 919.98 116.83 919.98 251.45 945.35 276.83 1079.98 276.83 1079.98 116.83 1047.98 116.83 1047.98 244.83" style="fill: #fff"/>
    </g>
    <g>
      <g>
        <g>
          <polygon points="61.75 61.75 105.41 105.41 210.82 0 61.75 61.75" style="fill: #bfbfbf"/>
          <polygon points="359.89 61.75 316.23 105.41 210.82 0 359.89 61.75" style="fill: #bfbfbf"/>
          <polygon points="61.75 359.89 105.41 316.23 210.82 421.64 61.75 359.89" style="fill: #666"/>
          <polygon points="359.89 359.89 316.23 316.23 210.82 421.64 359.89 359.89" style="fill: #666"/>
          <polygon points="61.75 149.07 61.75 61.75 105.41 105.41 61.75 149.07" style="fill: #b3b3b3"/>
          <polygon points="61.75 359.89 61.75 272.57 105.41 316.23 61.75 359.89" style="fill: #737373"/>
          <polygon points="0 210.82 61.75 149.07 61.75 61.75 0 210.82" style="fill: #a6a6a6"/>
          <polygon points="0 210.82 61.75 272.57 61.75 359.89 0 210.82" style="fill: gray"/>
          <polygon points="61.75 272.57 0 210.82 61.75 149.07 61.75 272.57" style="fill: #999"/>
          <polygon points="359.89 149.07 359.89 61.75 316.23 105.41 359.89 149.07" style="fill: #b3b3b3"/>
          <polygon points="359.89 359.89 359.89 272.57 316.23 316.23 359.89 359.89" style="fill: #737373"/>
          <polygon points="421.64 210.82 359.89 149.07 359.89 61.75 421.64 210.82" style="fill: #a6a6a6"/>
          <polygon points="421.64 210.82 359.89 272.57 359.89 359.89 421.64 210.82" style="fill: gray"/>
          <polygon points="359.89 272.57 421.64 210.82 359.89 149.07 359.89 272.57" style="fill: #999"/>
          <g>
            <polygon points="210.82 0 316.23 105.41 105.41 105.41 210.82 0" style="fill: #ccc"/>
            <polygon points="272.57 359.88 210.82 421.64 149.08 359.89 149.07 359.89 105.41 316.23 272.57 316.23 272.57 359.88" style="fill: #737373"/>
          </g>
        </g>
        <g>
          <polygon points="316.23 105.41 210.82 210.82 105.41 105.41 316.23 105.41" style="fill: #fff"/>
          <polygon points="105.41 316.22 210.82 210.81 316.23 316.22 105.41 316.22" style="fill: #bfbfbf"/>
          <polygon points="359.89 149.07 316.23 105.41 210.82 210.81 359.89 149.07" style="fill: #e6e6e6"/>
          <polygon points="61.75 149.07 105.41 105.41 210.82 210.81 61.75 149.07" style="fill: #e6e6e6"/>
          <polygon points="359.89 272.55 316.23 316.21 210.82 210.81 359.89 272.55" style="fill: #ccc"/>
          <polygon points="61.75 272.55 105.41 316.21 210.82 210.81 61.75 272.55" style="fill: #ccc"/>
          <polygon points="61.75 149.07 61.75 272.55 210.82 210.81 61.75 149.07" style="fill: #d9d9d9"/>
          <polygon points="359.89 149.07 359.89 272.55 210.82 210.81 359.89 149.07" style="fill: #d9d9d9"/>
          <polygon points="316.23 316.21 272.57 359.88 272.57 316.22 316.23 316.21" style="fill: #ccc"/>
        </g>
        <rect x="96.02" y="199.24" width="83.35" height="23.16"/>
        <rect x="126.12" y="169.14" width="23.16" height="83.35"/>
        <g>
          <polygon points="313.94 194.61 302.36 199.4 297.57 210.98 302.36 222.56 313.94 227.36 325.53 222.56 330.32 210.98 325.53 199.4 313.94 194.61"/>
          <polygon points="253.9 194.61 242.31 199.4 237.52 210.98 242.31 222.56 253.9 227.36 265.48 222.56 270.27 210.98 265.48 199.4 253.9 194.61"/>
          <polygon points="300.25 240.91 295.45 229.33 283.88 224.53 272.29 229.33 267.5 240.91 272.29 252.49 283.87 257.29 295.45 252.49 300.25 240.91"/>
          <polygon points="300.25 180.72 295.45 169.14 283.88 164.34 272.29 169.14 267.5 180.72 272.29 192.31 283.87 197.1 295.45 192.31 300.25 180.72"/>
        </g>
        <g>
          <polygon points="61.84 61.84 105.51 105.5 210.91 0.09 61.84 61.84" style="fill: #dc9800"/>
          <polygon points="359.99 61.84 316.32 105.5 210.91 0.09 359.99 61.84" style="fill: #cddc00"/>
          <polygon points="61.84 359.99 105.51 316.32 210.91 421.73 61.84 359.99" style="fill: #310087"/>
          <polygon points="359.99 359.99 316.32 316.32 210.91 421.73 359.99 359.99" style="fill: #003a7f"/>
          <polygon points="61.84 149.17 61.84 61.84 105.51 105.5 61.84 149.17" style="fill: #d65600"/>
          <polygon points="61.84 359.99 61.84 272.66 105.51 316.32 61.84 359.99" style="fill: #71004b"/>
          <polygon points="0.1 210.91 61.84 149.17 61.84 61.84 0.1 210.91" style="fill: #cf2a00"/>
          <polygon points="0.1 210.91 61.84 272.66 61.84 359.99 0.1 210.91" style="fill: #9a0024"/>
          <polygon points="61.84 272.66 0.1 210.91 61.84 149.17 61.84 272.66" style="fill: #c70000"/>
          <polygon points="359.99 149.17 359.99 61.84 316.32 105.5 359.99 149.17" style="fill: #80d600"/>
          <polygon points="359.99 359.99 359.99 272.66 316.32 316.32 359.99 359.99" style="fill: #006f66"/>
          <polygon points="421.73 210.91 359.99 149.17 359.99 61.84 421.73 210.91" style="fill: #34cf00"/>
          <polygon points="421.73 210.91 359.99 272.66 359.99 359.99 421.73 210.91" style="fill: #009628"/>
          <polygon points="359.99 272.66 421.73 210.91 359.99 149.17 359.99 272.66" style="fill: #03c800"/>
          <g>
            <polygon points="210.91 0.09 316.32 105.5 105.51 105.5 210.91 0.09" style="fill: #e3c100"/>
            <polygon points="272.67 359.98 210.91 421.73 149.18 359.99 149.17 359.99 105.51 316.32 272.66 316.32 272.67 359.98" style="fill: #002a97"/>
          </g>
        </g>
      </g>
      <polyline points="189.73 277.73 229.73 277.73 241.73 265.73" style="fill: none;stroke: #000;stroke-width: 12px"/>
    </g>
  </g>
</svg>
