<svg xmlns="http://www.w3.org/2000/svg" viewBox="0 0 1463.98 421.74">
  <title>logo-phune-white</title>
  <g>
    <g>
      <path d="M1480.15,252.78V182.14l-25.37-25.38H1320.15V291.42l25.37,25.38h102.63l-34-32h-55.37l-6.63-6.63V252.78Zm-128-64h89.37l6.63,6.63v25.38h-96Z" transform="translate(-16.17 -39.96)" style="fill: #fff"/>
      <polygon points="759.98 116.81 759.98 80.79 727.98 52.79 727.98 276.84 759.98 276.84 759.98 148.81 849.35 148.81 855.98 155.44 855.98 276.84 887.98 276.84 887.98 142.18 862.61 116.81 759.98 116.81" style="fill: #fff"/>
      <path d="M552.15,156.76v192l32,32v-64H686.78l25.37-25.38V182.14l-25.37-25.38Zm128,121.4-6.63,6.63H584.15v-96h89.37l6.63,6.63Z" transform="translate(-16.17 -39.96)" style="fill: #fff"/>
      <polygon points="1111.98 116.81 1111.98 276.84 1143.98 276.84 1143.98 148.81 1233.35 148.81 1239.98 155.44 1239.98 276.84 1271.98 276.84 1271.98 142.18 1246.61 116.81 1111.98 116.81" style="fill: #fff"/>
      <polygon points="1047.98 244.83 958.61 244.83 951.98 238.21 951.98 116.81 919.98 116.81 919.98 251.46 945.35 276.84 1079.98 276.84 1079.98 116.81 1047.98 116.81 1047.98 244.83" style="fill: #fff"/>
    </g>
    <path d="M437.81,250.83,376.06,101.72h0L227,40h0L77.92,101.72,16.17,250.83,77.92,399.93h0L227,461.69h0l149.07-61.76h0ZM332.4,356.26h0l-43.65,43.66V356.26H121.58L77.92,312.59h0V189.06l43.66-43.67H332.4l43.66,43.67V312.59h0Z" transform="translate(-16.17 -39.96)" style="fill: #fff"/>
    <rect x="96.02" y="199.23" width="83.35" height="23.17" style="fill: #fff"/>
    <rect x="126.12" y="169.13" width="23.16" height="83.37" style="fill: #fff"/>
    <g>
      <polygon points="313.94 194.6 302.36 199.4 297.57 210.98 302.36 222.57 313.94 227.37 325.53 222.57 330.32 210.98 325.53 199.4 313.94 194.6" style="fill: #fff"/>
      <polygon points="253.9 194.6 242.31 199.4 237.52 210.98 242.31 222.57 253.9 227.37 265.48 222.57 270.27 210.98 265.48 199.4 253.9 194.6" style="fill: #fff"/>
      <polygon points="300.25 240.92 295.45 229.33 283.88 224.54 272.29 229.33 267.5 240.92 272.29 252.5 283.87 257.3 295.45 252.5 300.25 240.92" style="fill: #fff"/>
      <polygon points="300.25 180.72 295.45 169.13 283.88 164.33 272.29 169.13 267.5 180.72 272.29 192.3 283.87 197.1 295.45 192.3 300.25 180.72" style="fill: #fff"/>
    </g>
    <polyline points="189.73 277.75 229.73 277.75 241.73 265.75" style="fill: none;stroke: #fff;stroke-width: 12px"/>
  </g>
</svg>
