<?xml version="1.0" encoding="utf-8"?>
<!-- Generator: Adobe Illustrator 21.0.0, SVG Export Plug-In . SVG Version: 6.00 Build 0)  -->
<svg version="1.1" id="Layer_1" xmlns="http://www.w3.org/2000/svg" xmlns:xlink="http://www.w3.org/1999/xlink" x="0px" y="0px"
	 viewBox="0 0 565.9 294.2" enable-background="new 0 0 565.9 294.2" xml:space="preserve">
<title>logo-thunderpush</title>
<g>
	<g enable-background="new    ">
		<path fill="#FFFFFF" d="M15.3,127.7H0.5v-8c13.5,0,24.8,0,38.4,0v8H24.1v38.6h-8.8V127.7z"/>
		<path fill="#FFFFFF" d="M76,166.4v-18.9H53.1v18.9h-8.8v-46.6h8.8v19.7H76v-19.7h8.7v46.6H76z"/>
		<path fill="#FFFFFF" d="M133.9,119.7v26.7c0,13.8-8.5,20.9-20.2,20.9c-11.2,0-20.7-6.8-20.7-20.9v-26.7h8.7v26.7
			c0,8.4,4.8,12.9,12.1,12.9s11.4-4.9,11.4-12.9v-26.7H133.9z"/>
		<path fill="#FFFFFF" d="M173.1,119.6h8.8v46.7h-5.5v0.1L152,134.9v31.4h-8.8v-46.6h7.1l22.9,28.9L173.1,119.6L173.1,119.6z"/>
		<path fill="#FFFFFF" d="M231,142.6c0.2,11.8-7,23.7-23.3,23.7c-5.7,0-12.6,0-18.3,0v-46.6c5.7,0,12.6,0,18.3,0
			C223.7,119.7,230.8,131.1,231,142.6z M198.1,157.8h9.6c10.6,0,14.8-7.7,14.6-15.3c-0.2-7.3-4.5-14.5-14.6-14.5h-9.6V157.8z"/>
		<path fill="#FFFFFF" d="M271.6,166.3h-34.9c0-15.5,0-31.1,0-46.6h34.9v8.5h-26.2v10.7h25.2v8.2h-25.2v10.5h26.2V166.3z"/>
		<path fill="#FFFFFF" d="M319.8,166.3h-10.5l-13.6-15.6h-8.5v15.6h-8.8v-46.7c7.4,0,14.8,0.1,22.2,0.1c11,0.1,16.8,7.4,16.8,15.5
			c0,6.4-2.9,12.9-11.8,14.7l14.1,15.9L319.8,166.3L319.8,166.3z M287.3,127.9v14.9h13.4c5.6,0,8-3.7,8-7.5c0-3.7-2.5-7.5-8-7.5
			L287.3,127.9L287.3,127.9z"/>
	</g>
	<g enable-background="new    ">
		<path fill="#FFFFFF" d="M395.3,150.2v16.1h-3.6v-46.6c6.8,0,13.7,0,20.5,0c20.3,0,20.3,30.5,0,30.5L395.3,150.2L395.3,150.2z
			 M395.3,123v23.9h16.9c15.5,0,15.5-23.9,0-23.9C412.2,123,395.3,123,395.3,123z"/>
		<path fill="#FFFFFF" d="M470.9,119.7v29c0,24.4-35.7,24.4-35.7,0v-29h3.5v29c0,20.1,28.6,20,28.6,0v-29H470.9z"/>
		<path fill="#FFFFFF" d="M511,128.7c-3.4-5.5-8.9-6.3-14.1-6.3c-5.5,0-14.1,2-14.1,9.5c0,5.9,6.4,7.3,14.3,8.8
			c9,1.7,18.3,3.3,18.3,13.4c-0.1,10.5-10.7,13.1-18.5,13.1c-7.3,0-15.5-3-19.1-10.1l3.2-1.6c2.9,5.7,10.2,8.5,15.9,8.5
			s14.9-1.6,14.9-9.9c0.1-7-7.7-8.5-15.3-10c-8.5-1.7-17.3-3.4-17.3-12c-0.2-9.9,10.1-12.9,17.7-12.9c6.7,0,12.5,1.1,17.1,7.9
			L511,128.7z"/>
		<path fill="#FFFFFF" d="M556.3,166.3v-21.2h-29.7v21.2H523v-46.6h3.6v22.2h29.7v-22.2h3.6v46.6L556.3,166.3L556.3,166.3z"/>
	</g>
	
		<linearGradient id="SVGID_1_" gradientUnits="userSpaceOnUse" x1="620.5335" y1="621.0096" x2="470.7702" y2="770.773" gradientTransform="matrix(0.996 8.976348e-02 -8.976348e-02 0.996 -183.8211 -613.4186)">
		<stop  offset="0" style="stop-color:#F1C40F"/>
		<stop  offset="1" style="stop-color:#D35400"/>
	</linearGradient>
	<polygon fill="url(#SVGID_1_)" points="252.8,0 311.8,29.8 298.5,65.7 391.5,76.4 333.2,254.2 301,224 297.4,294.2 273.5,173.6 
		324,212 350.7,92.1 264.4,90 	"/>
</g>
</svg>
