<svg xmlns="http://www.w3.org/2000/svg" viewBox="0 0 57.6 57.6">
  <title>enterprise-icon</title>
  <path d="M28.8,57.6A28.8,28.8,0,1,1,57.6,28.8,28.8,28.8,0,0,1,28.8,57.6h0ZM52.14,26.39a0.18,0.18,0,0,0,.09-0.13,0.88,0.88,0,0,0,.28.51h0a0.86,0.86,0,0,0,1.21-.1l0.09-.13h0V26.45A0.88,0.88,0,0,0,53.93,26a0.9,0.9,0,0,0-.9-0.9h0a0.88,0.88,0,0,0-.74.42h0a0.82,0.82,0,0,0-.14-0.43V26a0.88,0.88,0,0,1,0,.29v0.08Zm-41.36-.27A1.3,1.3,0,0,0,10,25.39a1.53,1.53,0,0,0-.35-0.6c0-.19-0.66-1-0.76-0.66a8.33,8.33,0,0,0,.5.83A5,5,0,0,1,10,26c1,1.65-.73.52-0.73-0.18a2.29,2.29,0,0,1-.56-1.16,3.68,3.68,0,0,1-.47-0.9A0.73,0.73,0,0,0,7.58,23H7.4a7.2,7.2,0,0,0-.52-0.73,1.91,1.91,0,0,0-.6-1,7,7,0,0,1-.13-1.47A5,5,0,0,0,6,18.2,25.12,25.12,0,0,0,18.08,51.59q1,0.47,2.07.86c0-.89.08-2,0.28-2a1.29,1.29,0,0,1,.22-0.69,10.75,10.75,0,0,0,0-1.16,2,2,0,0,1,.26-1c0.5-.25.14-2.76,0.52-2.76a17.13,17.13,0,0,0,.08-3.15A3.45,3.45,0,0,0,21,41a1.55,1.55,0,0,1-1.08-1.47,2.73,2.73,0,0,1-.22-0.73,7.27,7.27,0,0,0-.91-1.51c-0.56-.31,0-0.74.09-1.25-0.48-.16,0-1.47.22-1.47a0.41,0.41,0,0,1,.26-0.34c0.11,0.43.61-.22,0.22-0.22V33c0-.44-0.39-1.3-0.69-0.39-0.32-.16-1.14-0.13-1.21-0.65A1.42,1.42,0,0,0,17,31.11c0.17-.44-0.88-1-1.25-1l-0.26-.17c-0.38,0-.47-0.52-0.91-0.52s-1-.35-1.47-0.35c-0.16-.31-0.87-0.19-1-0.52a1,1,0,0,1-.53-1c-0.07-.32-0.32-1.44-0.76-1.44h0ZM47.24,11.67h0Zm0.54,0.6a0.58,0.58,0,0,1,.09.31H48Zm1.56,8.2c0-.78-0.65-0.65-0.86-1.08a6,6,0,0,0-.61-0.17,0.37,0.37,0,0,0-.46.14c-0.46.18-.18-0.23-0.53-0.23,0-.45-0.16-0.57-0.65-0.52a3.27,3.27,0,0,0-.65,1.73c0.21,0,.17.09,0.13,0.3a5.76,5.76,0,0,0,2-.26c0.06,0,.35.59,0.35,0.09,0.23,0,.36.55,0.91,0.39,0,0.1.88-.4,0.43-0.4h0Zm0.09,9.19a0.55,0.55,0,0,0-.17-0.39c0.25,0-.78-1.9-0.78-2.2a1.72,1.72,0,0,1-.39-0.82,2,2,0,0,1-.52-0.86,3.13,3.13,0,0,1-.82-1.08c0.31,0,.78.1,0.78-0.3-0.21,0-.24-0.26,0-0.26a1.33,1.33,0,0,1,.18-0.66,4.92,4.92,0,0,0,.16-0.93,1.44,1.44,0,0,0-.61.13c0,0.17-.53,0-0.61,0-0.11-.23-0.93.29-1.17-0.17A1.57,1.57,0,0,1,45.09,21a0.65,0.65,0,0,0-.59-0.29c-0.56-.11-0.16.67-0.19,0.85,0.35,0-.22.43-0.22,0.65-0.58-.13-0.39-0.78-0.73-1-0.1-.17,0-0.3-0.26-0.3,0-.23.13-0.65-0.13-0.73,0-.11-0.49-0.16-0.56-0.3-0.31,0-1-1.17-1.25-.78s0.12,0.31.17,0.52c0.45-.09.4,0.74,1,0.65a1.5,1.5,0,0,0,0,.35c0.4-.1.36,0.3,0.56,0.3-0.15.2-.62-0.31-0.49,0.12a0.58,0.58,0,0,1-.29.7c0-.27,0-1-0.3-1-0.19-.38-0.76-0.29-1-0.65-0.2,0-.27-0.6-0.61-0.65a0.67,0.67,0,0,1-.39.17c-0.18.36-1.21,0-1.21,0.09s-0.6,1.42-.6,1.6a7.42,7.42,0,0,1-.47.76,9.82,9.82,0,0,1-1.18.23,1.15,1.15,0,0,1-.91-1,8,8,0,0,1,.17-1.55,0.24,0.24,0,0,1,.17.17c0.3-.11,1,0.07,1-0.26,0.29,0,.38.12,0.26,0.35,0.27,0,.74.12,0.74-0.26-0.16,0-.17,0-0.17-0.17,0.52-.54-0.39-1-0.39-1.29-0.22-.06-0.57-0.46-0.3-0.33s1,0.38.72-.17h0c0.09,0.07.48,0.46,0.48,0.09,0.11,0,.52-0.26.17-0.26V17.2c0.55,0.3.24-.2,0.52-0.39,0,0.36.3-.17,0.48-0.17,0.21-.32.7-0.07,0.82-0.43a1.22,1.22,0,0,1-.22-1c0.32,0.05.67-.43,0.72-0.1a1.58,1.58,0,0,0,.1.53c0.47,0.25.35-.14,0.35-0.39a1.18,1.18,0,0,1-.39-0.82,0.59,0.59,0,0,0-.39.17c-0.47,0-.79-0.17-1.17-0.17,0-.06-0.48-0.56-0.43-0.56-0.26-.45.26-0.32,0.35-0.34,0-.43,1.78-0.35,1.86-1-0.59,0,.6-1,0.6-1a1.85,1.85,0,0,1,1.1-.67c0.21,0,2.53-.66,2.53-0.37h0.73A25.1,25.1,0,0,0,12,10.1a0.65,0.65,0,0,1,.07.24c0.24,0,.57-0.17.65,0.13a1.43,1.43,0,0,1-.35,0c0.08,0.67-.29.26-0.61,0.26a0.89,0.89,0,0,0-.29-0.11l-0.29.27a0.27,0.27,0,0,0,0,.06,1.47,1.47,0,0,0,.34.25,6.55,6.55,0,0,0,1,.23,3.42,3.42,0,0,0,.69-0.05s0.59-.3.17-0.3c0.06-.24,0-0.3-0.3-0.3,0-.25.62-0.09,0.87-0.09,0.19-.32,0-0.28.17-0.56s0.43,0,.56-0.38a0.61,0.61,0,0,1,.43.43c0.16,0.13,1,1.3,1,.47a1.08,1.08,0,0,1,.43.91,0.7,0.7,0,0,0,.57-0.81h0V10.7c0.12,0,0-.19,0-0.26,0.19-.07.43,0.18,0.43-0.09,0.08,0,.09.08,0.09,0.17a2.45,2.45,0,0,0,.61,0,1.4,1.4,0,0,1,0,.84,1.93,1.93,0,0,1-.57.39c-0.57.43,0.67,0.64,0.87,0.9A2.33,2.33,0,0,1,18,12.56a2.38,2.38,0,0,1-1.21.09,0.75,0.75,0,0,0,.52-0.82,0.62,0.62,0,0,0-.79.38h0c-0.15.53-.5,0-0.68,0.34a1.87,1.87,0,0,1-.69.21c-0.7.1-.52,0.7-0.52,1.34a1.76,1.76,0,0,1,.82.91c0.63,0.11.86,0.18,1.43,0.26a0.69,0.69,0,0,0,.35.21c0,0.37.34,0.3,0.65,0.3,0-.47.55,0.39,0.61,0.56a2,2,0,0,0,.17.65c-0.09,0-.11,0-0.09.09a0.59,0.59,0,0,0,.78-0.22c-0.26,0-.17-0.3-0.17-0.47a0.32,0.32,0,0,1,0-.6c0,0.24.89-.15,0.39-0.35a1,1,0,0,0,0-.94c-0.13-.15-0.29,0-0.35-0.23,0.34-.09.09-0.73,0.09-1a1.77,1.77,0,0,0,.39,0c0.33,0,.89.42,1.08-0.09,0.56,0.25.11,0.49,0.69,0.3a2.5,2.5,0,0,0,.74.78s0,0.22.13,0.22a1.28,1.28,0,1,0-.09.17c0.08,0,.52.09,0.52-0.09a0.59,0.59,0,0,0,.48-0.6c0.18-.11.48,0.95,0.69,0.95a3.25,3.25,0,0,1,.65.82,0.37,0.37,0,0,1,.22.39c0.13,0,.39-0.52.39,0a0.82,0.82,0,0,1,.52.47c-0.31,0,0,.3-0.17.3,0,0.3-.67.06-0.82,0-0.21.93-1.46,0.26-2.21,0.5a2.59,2.59,0,0,0-1.21,1.44,3.37,3.37,0,0,0,1.13-.56,2.25,2.25,0,0,0,.74-0.3c0,0.09.09,0,.09,0.13-0.62,0-.24.4-0.06,0.69a0.75,0.75,0,0,0,.38.32,1.73,1.73,0,0,0-.14.33h0a0.84,0.84,0,0,0-.39.22c-0.7.08-.35,0-0.31-0.14a0.42,0.42,0,0,0,.26,0c0-.21-0.1-0.18,0-0.3-0.38,0-.56.17-0.87,0.17a0.86,0.86,0,0,1-.43.35,2,2,0,0,1-.52.91,1.8,1.8,0,0,0-.56.39,1.12,1.12,0,0,0-.35.56,2.91,2.91,0,0,0-.22.69c-0.27.18-.37,0.91-0.82,0.91-0.28.55-.78,0.48-0.78,1.21a3.74,3.74,0,0,1,.29,1.18c0.06,0.31.17,0.62-.24,0.63a2,2,0,0,1-.26-0.47,2.72,2.72,0,0,0-.35-0.93,1.3,1.3,0,0,0-.74-0.07,1.74,1.74,0,0,0-1.08-.26,1.82,1.82,0,0,1,.17.39,1,1,0,0,1-.55.15,2.15,2.15,0,0,0-.74-0.3A1.25,1.25,0,0,0,13.84,26a3.87,3.87,0,0,0,0,1.29c0,0.37.3,0.63,0.3,0.91,0.29,0,.62.65,0.91,0.65,0,0.23-.14.26,0.35,0.26a0.91,0.91,0,0,0,.3-0.35c-0.34-.08,0-0.52.22-0.6,0,0.31.43-.1,0.43-0.13l0.48-.17c0-.35.32,0,0.08,0.17a1.14,1.14,0,0,0-.35.39c-0.06.28-.17,0.52-0.23,0.79a4.43,4.43,0,0,1,.1.68,5.37,5.37,0,0,0,1,0,0.3,0.3,0,0,0,0-.17c0.5,0,0,1,.35,1,0,0.36.17,0.64,0.17,0.86a0.57,0.57,0,0,1,.3.65c0.29,0,.91.11,0.91-0.26,0.44,0,.47.3,0.43,0.6,0.87,0,.33-0.86.69-0.86,0-.14.09-0.17,0.18-0.07a0.71,0.71,0,0,0,.46-0.27,1.24,1.24,0,0,1,.23-0.12,0.36,0.36,0,0,1,.19.13A1.29,1.29,0,0,0,22,31.07c0.31,0,.21.71,0.8,0.75a2.06,2.06,0,0,0,1-.06,0.36,0.36,0,0,1,.26.18,0.57,0.57,0,0,1,.26.17,0.07,0.07,0,0,0,.09,0,1.1,1.1,0,0,1,.26.3,1.91,1.91,0,0,0,.39.34c0.28,0.14-.09.18,0.33,0.31a3.12,3.12,0,0,0,.71.21c0.08-.31.34,0,0.48,0s0.1,0,.17.17c0.4,0.33.14,0.2,0.3,0.56a1.47,1.47,0,0,1,.3.82,0.92,0.92,0,0,0,0,.65c-0.19,0,.48.36,0.48-0.09a5.52,5.52,0,0,1,.65.34c-0.11.26,0.3,0.46,0.3,0,0.41,0,.3.65,0.26,0.86a3.48,3.48,0,0,0,.65-0.2,1.75,1.75,0,0,1,1-.31,1.8,1.8,0,0,1,1.8,1.8h0a1.78,1.78,0,0,1-1.52,1.74l-0.23.24V40.8a2.75,2.75,0,0,1-.26,1.12,3.65,3.65,0,0,1-.43,1,5.47,5.47,0,0,0-1.08.73c-0.21,0-.36.17-0.56,0.17a2.62,2.62,0,0,0-.39.47,3.58,3.58,0,0,1-.14,1.23c-0.11.13-.27,0.12-0.2,0.33a0.91,0.91,0,0,1-.37.17,0.86,0.86,0,0,0-.68.64,1,1,0,0,1-.42.83,1.22,1.22,0,0,0-.56.47,2.64,2.64,0,0,1,0,.65,1,1,0,0,0-.65.3,1,1,0,0,0-.86.3,0.46,0.46,0,0,1-.13.34c0,0.44-.31,0-0.56.26a0.54,0.54,0,0,1,.17.43,1,1,0,0,1-.48.69,3.73,3.73,0,0,1-.3.39c0,0.26-.13.49-0.13,0.73a0.4,0.4,0,0,1,0,.21,0.71,0.71,0,0,0,.17-0.17c0-.22.34,0.13,0.13,0.13a1.81,1.81,0,0,0-.48.65,0.4,0.4,0,0,0-.28.23A25,25,0,0,0,50,42.51,6.84,6.84,0,0,1,50.2,41c0.18,0.13.31,0.37,0.43,0-0.31-.06-0.24-0.17-0.13-0.43a1.1,1.1,0,0,0,.55.15c0.06-.11.11-0.23,0.17-0.34-0.18-.14.07-0.49,0.15-0.32l0.13-.26h0a0.19,0.19,0,0,1,.13-0.22h0a25.06,25.06,0,0,0,2.48-10.84V28.41a0.61,0.61,0,0,1-.26.41c0,0.11-1.29.67-1.21,0.91a1.88,1.88,0,0,0-1.17.52,2,2,0,0,0-.87.34c-0.94,0-.81-0.94-1.17-0.94h0Zm3.66-9.85h-1a0.78,0.78,0,0,1-.17-0.56h0.16c-0.08-.2-0.17-0.39-0.26-0.59a1.25,1.25,0,0,1-.63.32c0,0.07-.38.82,0,0.82h0a0.9,0.9,0,1,0-.09,1.8h0.53a0.44,0.44,0,0,0,.42.38,0.56,0.56,0,0,0,1,.13c-0.31,0-.21-0.3-0.18-0.5h0.25a0.9,0.9,0,0,0,0-1.8h0Zm-2.62,11.7A0.89,0.89,0,0,0,51,31.43a4.48,4.48,0,0,0,1.26-.17c0,0.56-.47.87-0.39,1.42-0.31,0-.17.32-0.17,0.43a4.86,4.86,0,0,1-.47.48,2.93,2.93,0,0,1-.73.88,4.16,4.16,0,0,0-.82,1,2.9,2.9,0,0,0-.79,1.09c0,0.22-.29,1.94.09,1.94,0,0.15.33,1.6,0.13,1.6,0,0.46-.3.75-0.3,1.12a1.17,1.17,0,0,0-.43.3,1.93,1.93,0,0,0-.52.56c0,0.6-.17,1-0.17,1.72l-0.35,1a3,3,0,0,0-1.13,1.38l-0.65.91a5.61,5.61,0,0,0-1.47.34,1.75,1.75,0,0,1-1.17,0c0-.28-0.15-0.62-0.17-1-0.13,0-.15-0.56-0.3-0.56a14.92,14.92,0,0,1-.69-1.77,2.86,2.86,0,0,0-.17-0.73c0-.6-0.43-1.09-0.43-1.64a2,2,0,0,1-.26-1.21,13.45,13.45,0,0,1,.31-1.75A4.2,4.2,0,0,0,41,37a1.33,1.33,0,0,1-.35-0.52,1.31,1.31,0,0,1-.48-1.12,2.88,2.88,0,0,0,.26-1.55,1.91,1.91,0,0,0-1.08-.13c-0.28-.56-2.15-0.22-2.68-0.22,0,0.31-1.3-.06-1.43-0.3a1.49,1.49,0,0,1-1-1,3.54,3.54,0,0,1-.91-1.77c-0.3-.15-0.21-0.73,0-0.73a3,3,0,0,0-.18-0.92,3.18,3.18,0,0,1,.18-0.59,2.6,2.6,0,0,1,.35-1.52A6.07,6.07,0,0,0,34,26c0.18-.45.23,0,0.48-0.42a6.37,6.37,0,0,0,.61-0.69c0.1-.14.11-0.2,0-0.3a2.59,2.59,0,0,0,.3-0.82c0.34-.47.1-0.26,0.43-0.22A1.15,1.15,0,0,1,36.34,23a0.55,0.55,0,0,1,.48-0.26c0,0.26.71-.09,0.78-0.09a2,2,0,0,1,1.08-.52c0-.3,1.53.08,1.77,0V22a2.8,2.8,0,0,1,.87,1.68,3.34,3.34,0,0,1,.65,0C42,24,42.5,24,42.73,24S44,24,44,23.55a0.4,0.4,0,0,1,.43.47c0.29,0,2,.07,1.9.43,0.25,0,.32.43,0.56,0.43A1.26,1.26,0,0,0,47.49,26a1.37,1.37,0,0,0,.39.91,3.14,3.14,0,0,0,.91,1.38,1.22,1.22,0,0,0,.35.86,0.92,0.92,0,0,0,.22.52,2.54,2.54,0,0,0,1,1.55c0,0.17-.34.24,0.12,0.27h0v0Zm-9.34-9.66c0.07-.26.22-0.06,0.36,0,0.33,0.11.22,0,.46-0.12,0,0.69-.4.15-0.82,0.11h0Zm-0.91-1.29c0.17,0,.22.79-0.26,0.65,0-.2-0.13-0.56.13-0.56,0.08,0.29.13,0.17,0.13-.1h0ZM40,20c0.2,0.09.29,0.06,0.26-.09,0.26,0.09,0,.27-0.09.47A0.79,0.79,0,0,1,40,20h0Zm-4.63-3.8c-0.43-.11.44-0.24,0.47-0.35a0.2,0.2,0,0,1-.19-0.28c0.06-.15.17,0.18,0.32,0.1s0.52-.28.34,0.23a1,1,0,0,1-1,.9c-0.21-.24,0-0.36.07-0.61h0ZM37,14.43c0.35,0,0,.26,0,0.26a0.54,0.54,0,0,1,0,.3,1.49,1.49,0,0,0,.56-0.26c0,0.29-.37.35-0.06,0.59a0.48,0.48,0,0,1,.27.49c0.41,0,.47.4,0.39,0.86,0.23,0,.22,0,0.22-0.22,0.22,0.06.21,0.26,0,.26a1.16,1.16,0,0,1-1.13.39c0-.31-0.06-0.33-0.35-0.25s-0.09-.31-0.08-0.53c0,0,.9,0,0.39-0.13,0-.46-0.13-0.6-0.56-0.6a3.3,3.3,0,0,0-.16-0.64c-0.11-.52.34,0,0.52-0.53h0Zm-0.13,2.8a0.13,0.13,0,0,1-.26,0h0.26ZM33.29,12.6h-1.8a0.9,0.9,0,0,1,0-1.8h1.8a0.9,0.9,0,1,1,0,1.8h0ZM22.8,28.53a0.19,0.19,0,0,1,.22.13C22.9,28.66,22.73,28.78,22.8,28.53Zm-1.64.09a0.67,0.67,0,0,1-.74,0,1.4,1.4,0,0,0,.61,0,0.81,0.81,0,0,0-.17-0.34c0.24,0,.5.18,0.82,0.17,0-.2-0.09,0,0-0.22a1,1,0,0,1,.48.47,6.26,6.26,0,0,0-1-.09h0Zm-1.9-1a1.21,1.21,0,0,1-.78-0.39A0.49,0.49,0,0,0,19,27.1c0.55,0.06.6,0.43,1,.43,0.08,0.15.55,0.48,0.1,0.52a1,1,0,0,1-.87-0.47h0Zm0.35,1.21c-0.16,0-.42.07-0.3-0.26,0.21,0,.31.07,0.3,0.22h0v0Zm0.3,0H19.65c0-.24.22-0.49,0.27-0.09v0.09h0Zm1.6,1.9c0,0.12,0,.13-0.17.13V30.69Zm-3.89-3.58h0.13c0.06,0.22.17,0.11,0.3,0,0,0.25-.58.32-0.43-0.09v0.09Z" transform="translate(0 0)" style="fill: #34d293"/>
</svg>
