<svg xmlns="http://www.w3.org/2000/svg" viewBox="0 0 36 57.98">
  <title>mobile-icon</title>
  <path d="M30.8,0H5.2C1.2,0,0,1.24,0,5.25V52.73C0,56.73,1.22,58,5.2,58H30.8c4,0,5.2-1.24,5.2-5.25V5.25C36,1.24,34.77,0,30.8,0ZM18.88,5h5.26a1,1,0,0,1,0,2H18.88a1,1,0,1,1,0-2h0ZM12.5,4A1.5,1.5,0,1,1,11,5.5,1.5,1.5,0,0,1,12.5,4h0ZM21,52.48a1.5,1.5,0,0,1-1.5,1.5h-3a1.5,1.5,0,0,1-1.5-1.5v-3a1.5,1.5,0,0,1,1.5-1.5h3a1.5,1.5,0,0,1,1.5,1.5v3ZM33,42.15A1.85,1.85,0,0,1,31.14,44H4.9A1.85,1.85,0,0,1,3,42.15H3V12.83A1.85,1.85,0,0,1,4.9,11H31.14A1.85,1.85,0,0,1,33,12.83h0V42.15Z" transform="translate(0)" style="fill: #3ab0e2"/>
</svg>
