<svg xmlns="http://www.w3.org/2000/svg" viewBox="0 0 57.6 57.6">
  <title>web-development-icon</title>
  <path d="M54,43.2H36c-3.15,0,3.6,10.8,3.6,10.8A3.6,3.6,0,0,1,36,57.6H21.6A3.6,3.6,0,0,1,18,54s6.86-10.8,3.6-10.8H3.6A3.6,3.6,0,0,1,0,39.6V3.6A3.6,3.6,0,0,1,3.6,0H54a3.6,3.6,0,0,1,3.6,3.6v36A3.6,3.6,0,0,1,54,43.2ZM28.81,40.34a2.52,2.52,0,1,0-2.52-2.52,2.52,2.52,0,0,0,2.52,2.52h0ZM54,7.22a3.6,3.6,0,0,0-3.6-3.6H7.21a3.6,3.6,0,0,0-3.6,3.6v21.6a3.6,3.6,0,0,0,3.6,3.6h43.2a3.6,3.6,0,0,0,3.6-3.6V7.22Z" style="fill: #e96656"/>
</svg>
