<?xml version="1.0" encoding="utf-8"?>
<!-- Generator: Adobe Illustrator 21.0.2, SVG Export Plug-In . SVG Version: 6.00 Build 0)  -->
<svg version="1.1" id="Layer_1" xmlns="http://www.w3.org/2000/svg" xmlns:xlink="http://www.w3.org/1999/xlink" x="0px" y="0px"
	 viewBox="0 0 881.5 70" enable-background="new 0 0 881.5 70" xml:space="preserve">
<g>
	<g>
		<path fill="#FFFFFF" d="M404,62.5l15.1-12.9c1.5-1.3,2.8-2.4,3.8-3.4c1-1,1.9-2,2.5-2.9c0.7-0.9,1.1-1.8,1.4-2.7
			c0.3-0.9,0.4-1.8,0.4-2.8c0-2.2-0.7-3.9-2-5c-1.4-1.2-3-1.8-5.1-1.8c-2,0-3.8,0.5-5.3,1.6c-1.5,1.1-3.1,2.7-4.9,5l-5.5-4.3
			c1-1.5,2.1-2.8,3.2-3.9c1.1-1.2,2.3-2.1,3.5-2.9c1.3-0.8,2.7-1.4,4.2-1.8c1.5-0.4,3.3-0.6,5.2-0.6c2.1,0,4.1,0.3,5.9,0.9
			c1.8,0.6,3.3,1.5,4.6,2.7c1.3,1.2,2.3,2.5,3,4.1c0.7,1.6,1.1,3.4,1.1,5.4v0.1c0,1.7-0.2,3.3-0.7,4.7c-0.5,1.4-1.2,2.8-2.1,4.1
			c-0.9,1.3-2.1,2.6-3.6,3.9c-1.4,1.3-3.1,2.8-5.1,4.4l-9,7.5h20.9v6.8H404V62.5z"/>
		<path fill="#FFFFFF" d="M462.4,68.5c-3.4,0-6.5-0.6-9.3-1.8c-2.8-1.2-5.2-2.8-7.2-4.9c-2-2-3.6-4.4-4.7-7.2
			c-1.1-2.7-1.7-5.7-1.7-8.8v-0.1c0-3.1,0.6-6,1.7-8.8c1.1-2.7,2.7-5.2,4.8-7.2c2.1-2.1,4.5-3.7,7.3-4.9c2.8-1.2,5.9-1.8,9.3-1.8
			c3.4,0,6.5,0.6,9.3,1.8c2.8,1.2,5.2,2.8,7.2,4.9c2,2.1,3.6,4.4,4.7,7.2c1.1,2.7,1.7,5.7,1.7,8.8v0.1c0,3.1-0.6,6-1.7,8.8
			c-1.1,2.7-2.7,5.2-4.8,7.2c-2.1,2.1-4.5,3.7-7.3,4.9C468.8,67.9,465.7,68.5,462.4,68.5 M462.5,61.4c2.2,0,4.2-0.4,6-1.2
			c1.8-0.8,3.4-1.9,4.7-3.3c1.3-1.4,2.3-3,3-4.9c0.7-1.9,1.1-3.9,1.1-6v-0.1c0-2.1-0.4-4.2-1.1-6.1c-0.7-1.9-1.8-3.6-3.1-5
			c-1.3-1.4-2.9-2.5-4.7-3.4c-1.8-0.8-3.8-1.3-6-1.3c-2.2,0-4.2,0.4-6,1.2c-1.8,0.8-3.4,1.9-4.7,3.3c-1.3,1.4-2.3,3-3,4.9
			c-0.7,1.9-1.1,3.9-1.1,6v0.1c0,2.1,0.4,4.2,1.1,6.1c0.7,1.9,1.8,3.6,3.1,5c1.3,1.4,2.9,2.5,4.7,3.4
			C458.3,61,460.3,61.4,462.5,61.4"/>
		<path fill="#FFFFFF" d="M488.4,62.5l15.1-12.9c1.5-1.3,2.8-2.4,3.8-3.4c1-1,1.9-2,2.5-2.9c0.6-0.9,1.1-1.8,1.4-2.7
			c0.3-0.9,0.4-1.8,0.4-2.8c0-2.2-0.7-3.9-2-5c-1.4-1.2-3-1.8-5.1-1.8c-2,0-3.8,0.5-5.3,1.6c-1.5,1.1-3.2,2.7-4.9,5l-5.5-4.3
			c1.1-1.5,2.1-2.8,3.2-3.9c1.1-1.2,2.3-2.1,3.6-2.9c1.3-0.8,2.7-1.4,4.2-1.8c1.5-0.4,3.3-0.6,5.2-0.6c2.1,0,4.1,0.3,5.9,0.9
			c1.8,0.6,3.3,1.5,4.6,2.7c1.3,1.2,2.3,2.5,3,4.1c0.7,1.6,1.1,3.4,1.1,5.4v0.1c0,1.7-0.2,3.3-0.7,4.7c-0.5,1.4-1.2,2.8-2.1,4.1
			c-0.9,1.3-2.1,2.6-3.6,3.9c-1.4,1.3-3.1,2.8-5.1,4.4l-9,7.5h20.9v6.8h-31.8V62.5z"/>
		<path fill="#FFFFFF" d="M546.7,68.5c-3.4,0-6.5-0.6-9.3-1.8c-2.8-1.2-5.2-2.8-7.2-4.9c-2-2-3.6-4.4-4.7-7.2
			c-1.1-2.7-1.7-5.7-1.7-8.8v-0.1c0-3.1,0.6-6,1.7-8.8c1.1-2.7,2.7-5.2,4.8-7.2c2-2.1,4.5-3.7,7.3-4.9c2.8-1.2,5.9-1.8,9.3-1.8
			c3.4,0,6.5,0.6,9.3,1.8c2.8,1.2,5.2,2.8,7.2,4.9c2,2.1,3.6,4.4,4.7,7.2c1.1,2.7,1.7,5.7,1.7,8.8v0.1c0,3.1-0.6,6-1.7,8.8
			c-1.1,2.7-2.7,5.2-4.8,7.2c-2.1,2.1-4.5,3.7-7.3,4.9C553.2,67.9,550.1,68.5,546.7,68.5 M546.9,61.4c2.2,0,4.2-0.4,6-1.2
			c1.8-0.8,3.4-1.9,4.7-3.3c1.3-1.4,2.3-3,3-4.9c0.7-1.9,1.1-3.9,1.1-6v-0.1c0-2.1-0.4-4.2-1.1-6.1c-0.7-1.9-1.8-3.6-3.1-5
			c-1.3-1.4-2.9-2.5-4.7-3.4c-1.8-0.8-3.8-1.3-6-1.3c-2.2,0-4.2,0.4-6,1.2c-1.8,0.8-3.4,1.9-4.7,3.3c-1.3,1.4-2.3,3-3,4.9
			c-0.7,1.9-1.1,3.9-1.1,6v0.1c0,2.1,0.4,4.2,1.1,6.1c0.7,1.9,1.8,3.6,3.1,5c1.3,1.4,2.9,2.5,4.7,3.4
			C542.7,61,544.7,61.4,546.9,61.4"/>
	</g>
	<g>
		<path fill="#FFFFFF" d="M408.8,9.5c-0.2,0-0.5,0-0.8,0v2.7c0.6,0,1.1,0.1,1.6,0.2v1.5H404v-1.5c0.5-0.1,1-0.2,1.6-0.2V3.2
			c-0.5,0-1.1-0.1-1.6-0.2V1.5h1.4c0.6,0,2.2-0.1,3.5-0.1c3,0,4.7,1.4,4.7,3.8C413.6,7.7,411.8,9.5,408.8,9.5z M408.8,3.4
			c-0.3,0-0.5,0-0.8,0v4.1c0.2,0,0.5,0.1,0.7,0.1c1.4,0,2.5-0.8,2.5-2.2C411.2,4.2,410.5,3.4,408.8,3.4z M420.3,14.1
			c-3.8,0-5.6-2.4-5.6-6.2c0-4.1,2.7-6.5,6-6.5c3.3,0,5.6,2,5.6,6.2C426.3,11.6,423.6,14.1,420.3,14.1z M420.5,3.5
			c-1.7,0-3.3,1.4-3.3,4.1c0,2.6,1,4.3,3.2,4.3c1.6,0,3.3-1.2,3.3-4.2C423.8,5,422.6,3.5,420.5,3.5z M434.5,13.9l-3-5.1h-0.3v3.4
			c0.3,0,0.7,0.1,1.1,0.2v1.5h-5.1v-1.5c0.5-0.1,1-0.2,1.6-0.2V3.2c-0.5,0-1.1-0.1-1.6-0.2V1.5h1.4c0.5,0,2.2-0.1,3.7-0.1
			c2.7,0,4.5,0.9,4.5,3.5c0,1.7-1.2,3-2.9,3.4c0.2,0.3,0.4,0.6,0.6,0.9l1.9,3c0.3,0.1,0.8,0.1,1.2,0.2v1.5H434.5z M432,3.4
			c-0.3,0-0.7,0-0.9,0V7c0.2,0,0.5,0,0.8,0c1.4,0,2.3-0.7,2.3-1.9C434.3,4,433.6,3.4,432,3.4z M446,5c-0.1-0.6-0.2-1.1-0.2-1.5h-1.9
			v8.7c0.5,0,1.1,0.1,1.6,0.2v1.5H440v-1.5c0.5-0.1,1-0.2,1.6-0.2V3.5h-1.9c0,0.5-0.1,1-0.2,1.5h-1.8V1.5h10.1V5H446z M459.8,3.2
			v5.9c0,3.3-1.8,4.9-5.1,4.9c-3.9,0-4.8-2.1-4.8-4.5V3.2c-0.4,0-0.8-0.1-1.2-0.2V1.5h4.8V3c-0.4,0.1-0.9,0.2-1.3,0.2v6.2
			c0,1.6,0.5,2.7,2.5,2.7c1.8,0,2.6-0.8,2.6-2.9v-6c-0.4,0-0.9-0.1-1.3-0.2V1.5h4.8V3C460.6,3.1,460.2,3.2,459.8,3.2z M472.1,9.1
			v4.2c-1.2,0.5-2.8,0.8-4.3,0.8c-3.9,0-6.2-2.3-6.2-6.1c0-3.9,2.6-6.6,6.8-6.6c1.2,0,2.3,0.2,3.4,0.5v3.3h-1.8
			c-0.1-0.5-0.2-1-0.2-1.5c-0.5-0.1-1-0.2-1.5-0.2c-2.4,0-4.1,1.5-4.1,4.3c0,2.6,1.4,4.2,3.9,4.2c0.6,0,1.1-0.1,1.6-0.2V9.1
			c-0.5,0-1.1-0.1-1.6-0.2V7.4h5v1.5C472.8,9,472.4,9,472.1,9.1z M480.6,13.9v-1.5c0.4-0.1,0.9-0.2,1.3-0.2l-0.5-1.5h-4.5l-0.5,1.5
			c0.4,0,0.9,0.1,1.3,0.2v1.5h-4.6v-1.5c0.3-0.1,0.7-0.2,1-0.2l3.8-10.7h2.9l3.8,10.7c0.3,0,0.7,0.1,1,0.2v1.5H480.6z M479.7,5.8
			c-0.2-0.7-0.4-1.3-0.6-1.9h0c-0.1,0.6-0.3,1.3-0.6,2l-1.1,3h3.3L479.7,5.8z M486.1,13.9v-1.5c0.5-0.1,1-0.2,1.6-0.2V3.2
			c-0.5,0-1.1-0.1-1.6-0.2V1.5h5.6V3c-0.5,0.1-1,0.2-1.6,0.2v8.7h2.4c0-0.4,0.1-1,0.2-1.5h1.8v3.5H486.1z"/>
	</g>
	<g>
		<path fill="#FFFFFF" d="M367,1.8c-10.9,4.3-17.6,15.7-17.6,33.1v26.5c0,0,2.2-17.1,17.6-22V1.8z"/>
		<path fill="#FFFFFF" d="M372.3,42.2c-6.3,1.3-15.6,6.3-18.3,13.5c13.6-16.5,41.3-0.6,42.5-31.6c0.4-9.8,0.4-21.9,0.4-21.9
			c-14.5,0.8-24.6,4.7-24.6,4.7V42.2z"/>
		<path fill="#FFFFFF" d="M370.5,51.1c0,0-14.7,1.2-16,9.6c-1,6.6,16,6.7,16,6.7V51.1z"/>
	</g>
</g>
<g>
	<g>
		<path fill="#FFFFFF" d="M17.9,52.3V17.8c0-9.6,7.1-15.4,16.9-15.4c9.2,0,15.7,5.4,15.7,14.2v7h-9v-6c0-4-2.4-6.7-6.7-6.7
			c-4.8,0-6.9,3-6.9,7.2v33.6c0,4.7,2.6,7.3,6.9,7.3c4.2,0,6.6-2.8,6.6-6.6v-6h9v6.5c0,9.1-6.5,14.8-15.7,14.8
			C24.8,67.7,17.9,62.5,17.9,52.3z"/>
		<path fill="#FFFFFF" d="M55.5,3.3h27.8v8.4H65.4v18h14.3v8.5H65.4v20.1h18v8.5H55.5V3.3z"/>
		<path fill="#FFFFFF" d="M88.2,3.3h10.3l14.9,39.3h0.2V3.3h8.8v63.5h-9.1L97.2,23.5H97v43.4h-8.8V3.3z"/>
		<path fill="#FFFFFF" d="M137.9,11.8h-12.1V3.3h34v8.5h-11.9v55h-10V11.8z"/>
		<path fill="#FFFFFF" d="M163.4,3.3h16.1c10.3,0,16.1,6.1,16.1,18.2c0,9.1-3.1,14.6-8,16.6l8.7,28.7H186l-7.4-26.4h-5.3v26.4h-10
			V3.3z M178.9,32.9c4.4,0,6.8-3.4,6.8-10.6c0-6.1-1.9-10.6-6.9-10.6h-5.3v21.2H178.9z"/>
		<path fill="#FFFFFF" d="M200.3,51.5V18.6c0-10.6,7.3-16.2,17-16.2c9.4,0,16.9,4.9,16.9,15.7v33.2c0,11-7.5,16.5-17,16.5
			C207.1,67.7,200.3,62.5,200.3,51.5z M224.1,51.7V17.9c0-4.2-2.6-6.9-6.9-6.9c-4.5,0-6.8,3-6.8,7v33.6c0,4,2.2,7.2,6.9,7.2
			C222,58.9,224.1,55.7,224.1,51.7z"/>
	</g>
	<path fill="#FFFFFF" d="M241.7,2.4v30.2h30.2V2.4H241.7z M266,30h-17.7v-4.1l6.3-7.1c2.1-2.4,3.9-3.9,3.9-5.8v-0.4c0-1-0.4-2-2-2
		c-1.6,0-2,1.2-2,2.7v0.8h-7v-1.5c0-5,4-7.6,9.4-7.6c5.9,0,8.8,3.3,8.8,7.7c0,3.8-4,7.3-6.4,9.7l-1.5,1.5V24h8.2V30z"/>
	<path fill="#FFFFFF" d="M241.7,37.6v30.2h30.2V37.6H241.7z M266,65.2h-17.7v-4.1l6.3-7.1c2.1-2.4,3.9-3.9,3.9-5.8v-0.4
		c0-1-0.4-2-2-2c-1.6,0-2,1.2-2,2.7v0.8h-7v-1.5c0-5,4-7.6,9.4-7.6c5.9,0,8.8,3.3,8.8,7.7c0,3.8-4,7.3-6.4,9.7l-1.5,1.5v0.1h8.2
		V65.2z"/>
	<g>
		<path fill="#FFFFFF" d="M276.9,2.4v30.2h30.2V2.4H276.9z M302,22.2c0,5.8-5.5,7.9-9.9,7.9c-4.5,0-10-1.9-10-7.9v-9.5
			c0-5.9,5.2-8,9.9-8c4.6,0,10,2.1,10,8.2V22.2z"/>
		<path fill="#FFFFFF" d="M292,10.7c-1.4,0-2.3,0.8-2.3,1.8v9.7c0,1,0.8,2,2.3,2c1.6,0,2.2-1.1,2.2-2.1v-9.7
			C294.3,11.5,293.4,10.7,292,10.7z"/>
	</g>
	<g>
		<path fill="#FFFFFF" d="M292,45.9c-1.4,0-2.3,0.8-2.3,1.8v9.7c0,1,0.8,2,2.3,2c1.6,0,2.2-1.1,2.2-2.1v-9.7
			C294.3,46.7,293.4,45.9,292,45.9z"/>
		<path fill="#FFFFFF" d="M276.9,37.6v30.2h30.2V37.6H276.9z M302,57.4c0,5.8-5.5,7.9-9.9,7.9c-4.5,0-10-1.9-10-7.9v-9.5
			c0-5.9,5.2-8,9.9-8c4.6,0,10,2.1,10,8.2V57.4z"/>
	</g>
</g>
<g>
	<g>
		<path fill="#FFFFFF" d="M725.2,13.2h1.6v4.3c0,0.7,0,1.1,0.1,1.3c0.1,0.3,0.2,0.6,0.5,0.8c0.3,0.2,0.6,0.3,1,0.3
			c0.5,0,0.8-0.1,1-0.3c0.2-0.2,0.4-0.4,0.4-0.7c0-0.3,0.1-0.7,0.1-1.3v-4.4h1.6v4.1c0,0.9,0,1.6-0.1,2c-0.1,0.4-0.2,0.7-0.5,1
			c-0.2,0.3-0.5,0.5-0.9,0.6c-0.4,0.2-0.9,0.2-1.5,0.2c-0.8,0-1.3-0.1-1.7-0.3c-0.4-0.2-0.7-0.4-0.9-0.7c-0.2-0.3-0.4-0.6-0.4-0.9
			c-0.1-0.5-0.2-1.1-0.2-2V13.2z"/>
		<path fill="#FFFFFF" d="M733.2,21.1v-7.9h1.5l3.2,5.3v-5.3h1.5v7.9h-1.6l-3.2-5.1v5.1H733.2z"/>
		<path fill="#FFFFFF" d="M741.1,21.1v-7.9h1.6v7.9H741.1z"/>
		<path fill="#FFFFFF" d="M751.3,21.1h-1.7l-0.7-1.8h-3.1l-0.7,1.8h-1.7l3.1-7.9h1.7L751.3,21.1z M746,12.8h-0.7c0-0.1,0-0.1,0-0.2
			c0-0.4,0.1-0.7,0.3-0.9c0.2-0.2,0.4-0.3,0.7-0.3c0.1,0,0.2,0,0.3,0c0.1,0,0.3,0.1,0.6,0.2c0.3,0.1,0.5,0.2,0.7,0.2
			c0.1,0,0.2,0,0.3-0.1c0.1-0.1,0.1-0.2,0.1-0.4h0.7c0,0.5-0.1,0.8-0.3,1c-0.2,0.2-0.4,0.3-0.7,0.3c-0.1,0-0.2,0-0.4,0
			c-0.1,0-0.3-0.1-0.6-0.2c-0.3-0.1-0.6-0.2-0.7-0.2c-0.1,0-0.2,0-0.3,0.1C746,12.5,746,12.6,746,12.8z M748.3,17.9l-1.1-2.9
			l-1.1,2.9H748.3z"/>
		<path fill="#FFFFFF" d="M751.8,17.2c0-0.8,0.1-1.5,0.4-2c0.2-0.4,0.4-0.8,0.7-1.1c0.3-0.3,0.6-0.6,1-0.7c0.5-0.2,1.1-0.3,1.7-0.3
			c1.2,0,2.1,0.4,2.8,1.1c0.7,0.7,1,1.7,1,3c0,1.3-0.3,2.3-1,3c-0.7,0.7-1.6,1.1-2.8,1.1c-1.2,0-2.1-0.4-2.8-1.1
			C752.1,19.4,751.8,18.4,751.8,17.2z M753.4,17.1c0,0.9,0.2,1.6,0.6,2c0.4,0.5,0.9,0.7,1.6,0.7s1.2-0.2,1.6-0.7
			c0.4-0.5,0.6-1.1,0.6-2.1c0-0.9-0.2-1.6-0.6-2c-0.4-0.4-0.9-0.7-1.6-0.7c-0.7,0-1.2,0.2-1.6,0.7C753.6,15.5,753.4,16.2,753.4,17.1
			z"/>
		<path fill="#FFFFFF" d="M763.7,21.1v-7.9h5.8v1.3h-4.2v1.7h4v1.3h-4v2.1h4.4v1.3H763.7z"/>
		<path fill="#FFFFFF" d="M771,13.2h1.6v4.3c0,0.7,0,1.1,0.1,1.3c0.1,0.3,0.2,0.6,0.5,0.8c0.3,0.2,0.6,0.3,1,0.3
			c0.5,0,0.8-0.1,1-0.3c0.2-0.2,0.4-0.4,0.4-0.7c0-0.3,0.1-0.7,0.1-1.3v-4.4h1.6v4.1c0,0.9,0,1.6-0.1,2c-0.1,0.4-0.2,0.7-0.5,1
			c-0.2,0.3-0.5,0.5-0.9,0.6c-0.4,0.2-0.9,0.2-1.5,0.2c-0.8,0-1.3-0.1-1.7-0.3c-0.4-0.2-0.7-0.4-0.9-0.7c-0.2-0.3-0.4-0.6-0.4-0.9
			c-0.1-0.5-0.2-1.1-0.2-2V13.2z"/>
		<path fill="#FFFFFF" d="M779,21.1v-7.9h3.3c0.8,0,1.5,0.1,1.8,0.2c0.4,0.1,0.7,0.4,0.9,0.8c0.2,0.4,0.3,0.8,0.3,1.2
			c0,0.6-0.2,1.1-0.5,1.5c-0.3,0.4-0.9,0.6-1.6,0.7c0.3,0.2,0.6,0.4,0.9,0.7c0.2,0.2,0.5,0.7,0.9,1.3l1,1.5h-1.9l-1.1-1.7
			c-0.4-0.6-0.7-1-0.8-1.2c-0.2-0.2-0.3-0.3-0.5-0.3c-0.2-0.1-0.4-0.1-0.8-0.1h-0.3v3.3H779z M780.6,16.5h1.2c0.8,0,1.2,0,1.4-0.1
			c0.2-0.1,0.3-0.2,0.4-0.3c0.1-0.2,0.2-0.4,0.2-0.6c0-0.3-0.1-0.5-0.2-0.6c-0.1-0.2-0.3-0.3-0.6-0.3c-0.1,0-0.5,0-1.2,0h-1.2V16.5z
			"/>
		<path fill="#FFFFFF" d="M786.6,17.2c0-0.8,0.1-1.5,0.4-2c0.2-0.4,0.4-0.8,0.7-1.1c0.3-0.3,0.6-0.6,1-0.7c0.5-0.2,1.1-0.3,1.7-0.3
			c1.2,0,2.1,0.4,2.8,1.1c0.7,0.7,1,1.7,1,3c0,1.3-0.3,2.3-1,3c-0.7,0.7-1.6,1.1-2.8,1.1c-1.2,0-2.1-0.4-2.8-1.1
			C786.9,19.4,786.6,18.4,786.6,17.2z M788.2,17.1c0,0.9,0.2,1.6,0.6,2c0.4,0.5,0.9,0.7,1.6,0.7s1.2-0.2,1.6-0.7
			c0.4-0.5,0.6-1.1,0.6-2.1c0-0.9-0.2-1.6-0.6-2c-0.4-0.4-0.9-0.7-1.6-0.7c-0.7,0-1.2,0.2-1.6,0.7C788.4,15.5,788.2,16.2,788.2,17.1
			z"/>
		<path fill="#FFFFFF" d="M795.5,21.1v-7.9h2.6c1,0,1.6,0,1.9,0.1c0.5,0.1,0.8,0.4,1.1,0.8c0.3,0.4,0.5,0.9,0.5,1.5
			c0,0.5-0.1,0.9-0.3,1.2c-0.2,0.3-0.4,0.6-0.7,0.8c-0.3,0.2-0.5,0.3-0.8,0.4c-0.4,0.1-0.9,0.1-1.6,0.1h-1v3H795.5z M797.1,14.5v2.2
			h0.9c0.6,0,1,0,1.3-0.1c0.2-0.1,0.4-0.2,0.5-0.4c0.1-0.2,0.2-0.4,0.2-0.6c0-0.3-0.1-0.5-0.3-0.7c-0.2-0.2-0.4-0.3-0.6-0.3
			c-0.2,0-0.6-0.1-1.1-0.1H797.1z"/>
		<path fill="#FFFFFF" d="M802.8,21.1v-7.9h5.8v1.3h-4.2v1.7h4v1.3h-4v2.1h4.4v1.3H802.8z"/>
		<path fill="#FFFFFF" d="M810.1,21.1v-7.9h1.6v7.9H810.1z"/>
		<path fill="#FFFFFF" d="M820.3,21.1h-1.7l-0.7-1.8h-3.1l-0.7,1.8h-1.7l3.1-7.9h1.7L820.3,21.1z M817.4,17.9l-1.1-2.9l-1.1,2.9
			H817.4z"/>
		<path fill="#FFFFFF" d="M725.3,47.1v-7.9h5.3v0.9h-4.3v2.4h3.7v0.9h-3.7v3.6H725.3z"/>
		<path fill="#FFFFFF" d="M735.6,47.1v-0.8c-0.4,0.6-1,1-1.8,1c-0.3,0-0.7-0.1-0.9-0.2c-0.3-0.1-0.5-0.3-0.6-0.5
			c-0.1-0.2-0.2-0.4-0.3-0.7c0-0.2-0.1-0.5-0.1-0.9v-3.5h1v3.2c0,0.5,0,0.8,0.1,1c0.1,0.3,0.2,0.5,0.4,0.6c0.2,0.1,0.4,0.2,0.7,0.2
			c0.3,0,0.6-0.1,0.8-0.2c0.3-0.1,0.4-0.4,0.5-0.6c0.1-0.3,0.2-0.6,0.2-1.1v-3.1h1v5.7H735.6z"/>
		<path fill="#FFFFFF" d="M738,47.1v-5.7h0.9v0.8c0.4-0.6,1-0.9,1.8-0.9c0.3,0,0.7,0.1,0.9,0.2c0.3,0.1,0.5,0.3,0.6,0.5
			c0.1,0.2,0.2,0.4,0.3,0.7c0,0.2,0.1,0.5,0.1,0.9v3.5h-1v-3.5c0-0.4,0-0.7-0.1-0.9c-0.1-0.2-0.2-0.4-0.4-0.5s-0.4-0.2-0.7-0.2
			c-0.4,0-0.8,0.1-1.1,0.4c-0.3,0.3-0.4,0.8-0.4,1.5v3.1H738z"/>
		<path fill="#FFFFFF" d="M747.8,47.1v-0.7c-0.4,0.6-0.9,0.8-1.6,0.8c-0.5,0-0.9-0.1-1.3-0.4c-0.4-0.3-0.7-0.6-0.9-1
			c-0.2-0.4-0.3-1-0.3-1.5c0-0.6,0.1-1.1,0.3-1.5c0.2-0.5,0.5-0.8,0.9-1.1c0.4-0.2,0.8-0.4,1.3-0.4c0.3,0,0.6,0.1,0.9,0.2
			c0.3,0.1,0.5,0.3,0.7,0.6v-2.8h1v7.9H747.8z M744.7,44.3c0,0.7,0.2,1.3,0.5,1.6c0.3,0.4,0.7,0.5,1.1,0.5c0.4,0,0.8-0.2,1.1-0.5
			c0.3-0.3,0.4-0.9,0.4-1.6c0-0.8-0.2-1.4-0.5-1.7c-0.3-0.4-0.7-0.5-1.1-0.5c-0.4,0-0.8,0.2-1.1,0.5C744.9,43,744.7,43.5,744.7,44.3
			z"/>
		<path fill="#FFFFFF" d="M749.8,44.3c0-1.1,0.3-1.8,0.9-2.3c0.5-0.4,1.1-0.6,1.8-0.6c0.8,0,1.4,0.3,1.9,0.8
			c0.5,0.5,0.7,1.2,0.7,2.1c0,0.7-0.1,1.3-0.3,1.7c-0.2,0.4-0.5,0.7-1,1c-0.4,0.2-0.9,0.3-1.4,0.3c-0.8,0-1.4-0.3-1.9-0.8
			C750.1,46,749.8,45.2,749.8,44.3z M750.8,44.3c0,0.7,0.2,1.3,0.5,1.6c0.3,0.4,0.7,0.5,1.2,0.5c0.5,0,0.9-0.2,1.2-0.5
			c0.3-0.4,0.5-0.9,0.5-1.7c0-0.7-0.2-1.2-0.5-1.6s-0.7-0.5-1.2-0.5c-0.5,0-0.9,0.2-1.2,0.5C751,43,750.8,43.5,750.8,44.3z"/>
		<path fill="#FFFFFF" d="M759.5,47.1v-7.9h5.7v0.9h-4.7v2.4h4.4v0.9h-4.4v2.7h4.8v0.9H759.5z"/>
		<path fill="#FFFFFF" d="M770.4,47.1v-0.8c-0.4,0.6-1,1-1.8,1c-0.3,0-0.7-0.1-0.9-0.2c-0.3-0.1-0.5-0.3-0.6-0.5
			c-0.1-0.2-0.2-0.4-0.3-0.7c0-0.2-0.1-0.5-0.1-0.9v-3.5h1v3.2c0,0.5,0,0.8,0.1,1c0.1,0.3,0.2,0.5,0.4,0.6c0.2,0.1,0.4,0.2,0.7,0.2
			c0.3,0,0.6-0.1,0.8-0.2c0.3-0.1,0.4-0.4,0.5-0.6c0.1-0.3,0.2-0.6,0.2-1.1v-3.1h1v5.7H770.4z"/>
		<path fill="#FFFFFF" d="M772.8,47.1v-5.7h0.9v0.9c0.2-0.4,0.4-0.7,0.6-0.8c0.2-0.1,0.4-0.2,0.6-0.2c0.3,0,0.7,0.1,1,0.3l-0.3,0.9
			c-0.2-0.1-0.5-0.2-0.7-0.2c-0.2,0-0.4,0.1-0.6,0.2c-0.2,0.1-0.3,0.3-0.4,0.5c-0.1,0.3-0.2,0.7-0.2,1.1v3H772.8z"/>
		<path fill="#FFFFFF" d="M776.1,44.3c0-1.1,0.3-1.8,0.9-2.3c0.5-0.4,1.1-0.6,1.8-0.6c0.8,0,1.4,0.3,1.9,0.8
			c0.5,0.5,0.7,1.2,0.7,2.1c0,0.7-0.1,1.3-0.3,1.7c-0.2,0.4-0.5,0.7-1,1c-0.4,0.2-0.9,0.3-1.4,0.3c-0.8,0-1.4-0.3-1.9-0.8
			C776.4,46,776.1,45.2,776.1,44.3z M777.1,44.3c0,0.7,0.2,1.3,0.5,1.6c0.3,0.4,0.7,0.5,1.2,0.5c0.5,0,0.9-0.2,1.2-0.5
			c0.3-0.4,0.5-0.9,0.5-1.7c0-0.7-0.2-1.2-0.5-1.6c-0.3-0.4-0.7-0.5-1.2-0.5c-0.5,0-0.9,0.2-1.2,0.5C777.3,43,777.1,43.5,777.1,44.3
			z"/>
		<path fill="#FFFFFF" d="M782.6,49.3v-7.9h0.9v0.7c0.2-0.3,0.4-0.5,0.7-0.7c0.3-0.1,0.6-0.2,1-0.2c0.5,0,0.9,0.1,1.3,0.4
			c0.4,0.3,0.7,0.6,0.8,1.1c0.2,0.5,0.3,1,0.3,1.5c0,0.6-0.1,1.1-0.3,1.6c-0.2,0.5-0.5,0.8-0.9,1.1c-0.4,0.2-0.8,0.4-1.3,0.4
			c-0.3,0-0.6-0.1-0.9-0.2c-0.3-0.1-0.5-0.3-0.6-0.5v2.8H782.6z M783.5,44.3c0,0.7,0.1,1.3,0.4,1.6c0.3,0.4,0.7,0.5,1.1,0.5
			c0.4,0,0.8-0.2,1.1-0.5c0.3-0.4,0.5-0.9,0.5-1.7c0-0.7-0.1-1.3-0.4-1.6c-0.3-0.4-0.7-0.5-1.1-0.5c-0.4,0-0.8,0.2-1.1,0.6
			C783.6,43,783.5,43.6,783.5,44.3z"/>
		<path fill="#FFFFFF" d="M792.6,45.3l1,0.1c-0.2,0.6-0.4,1-0.9,1.4c-0.4,0.3-1,0.5-1.6,0.5c-0.8,0-1.5-0.3-2-0.8
			c-0.5-0.5-0.7-1.2-0.7-2.2c0-1,0.2-1.7,0.7-2.2c0.5-0.5,1.1-0.8,1.9-0.8c0.8,0,1.4,0.3,1.9,0.8c0.5,0.5,0.7,1.2,0.7,2.2
			c0,0.1,0,0.1,0,0.3h-4.3c0,0.6,0.2,1.1,0.5,1.4c0.3,0.3,0.7,0.5,1.2,0.5c0.4,0,0.7-0.1,0.9-0.3C792.3,46,792.5,45.7,792.6,45.3z
			 M789.4,43.7h3.2c0-0.5-0.2-0.8-0.4-1.1c-0.3-0.4-0.7-0.6-1.2-0.6c-0.4,0-0.8,0.1-1.1,0.4C789.6,42.8,789.5,43.2,789.4,43.7z"/>
		<path fill="#FFFFFF" d="M798.6,47.1v-0.8c-0.4,0.6-1,1-1.8,1c-0.3,0-0.7-0.1-0.9-0.2c-0.3-0.1-0.5-0.3-0.6-0.5
			c-0.1-0.2-0.2-0.4-0.3-0.7c0-0.2-0.1-0.5-0.1-0.9v-3.5h1v3.2c0,0.5,0,0.8,0.1,1c0.1,0.3,0.2,0.5,0.4,0.6c0.2,0.1,0.4,0.2,0.7,0.2
			c0.3,0,0.6-0.1,0.8-0.2c0.3-0.1,0.4-0.4,0.5-0.6c0.1-0.3,0.2-0.6,0.2-1.1v-3.1h1v5.7H798.6z"/>
		<path fill="#FFFFFF" d="M728.8,60.3v-0.7c-0.4,0.6-0.9,0.8-1.6,0.8c-0.5,0-0.9-0.1-1.3-0.4c-0.4-0.3-0.7-0.6-0.9-1
			c-0.2-0.4-0.3-1-0.3-1.5c0-0.6,0.1-1.1,0.3-1.5c0.2-0.5,0.5-0.8,0.9-1.1c0.4-0.2,0.8-0.4,1.3-0.4c0.3,0,0.6,0.1,0.9,0.2
			c0.3,0.1,0.5,0.3,0.7,0.6v-2.8h1v7.9H728.8z M725.8,57.5c0,0.7,0.2,1.3,0.5,1.6c0.3,0.4,0.7,0.5,1.1,0.5c0.4,0,0.8-0.2,1.1-0.5
			c0.3-0.3,0.4-0.9,0.4-1.6c0-0.8-0.2-1.4-0.5-1.7c-0.3-0.4-0.7-0.5-1.1-0.5c-0.4,0-0.8,0.2-1.1,0.5
			C725.9,56.2,725.8,56.7,725.8,57.5z"/>
		<path fill="#FFFFFF" d="M735.2,58.5l1,0.1c-0.2,0.6-0.4,1-0.9,1.4c-0.4,0.3-1,0.5-1.6,0.5c-0.8,0-1.5-0.3-2-0.8
			c-0.5-0.5-0.7-1.2-0.7-2.2c0-1,0.2-1.7,0.7-2.2c0.5-0.5,1.1-0.8,1.9-0.8c0.8,0,1.4,0.3,1.9,0.8c0.5,0.5,0.7,1.2,0.7,2.2
			c0,0.1,0,0.1,0,0.3h-4.3c0,0.6,0.2,1.1,0.5,1.4c0.3,0.3,0.7,0.5,1.2,0.5c0.4,0,0.7-0.1,0.9-0.3C734.8,59.2,735,58.9,735.2,58.5z
			 M732,56.9h3.2c0-0.5-0.2-0.8-0.4-1.1c-0.3-0.4-0.7-0.6-1.2-0.6c-0.4,0-0.8,0.1-1.1,0.4C732.2,56,732,56.4,732,56.9z"/>
		<path fill="#FFFFFF" d="M740.6,60.3v-7.9h2.7c0.6,0,1.1,0,1.4,0.1c0.5,0.1,0.8,0.3,1.2,0.6c0.4,0.4,0.7,0.8,0.9,1.3
			c0.2,0.5,0.3,1.2,0.3,1.9c0,0.6-0.1,1.1-0.2,1.6c-0.1,0.5-0.3,0.8-0.5,1.1c-0.2,0.3-0.5,0.5-0.7,0.7c-0.3,0.2-0.6,0.3-0.9,0.4
			c-0.4,0.1-0.8,0.1-1.3,0.1H740.6z M741.6,59.4h1.7c0.5,0,0.9,0,1.2-0.1c0.3-0.1,0.5-0.2,0.7-0.4c0.2-0.2,0.4-0.6,0.6-1
			c0.1-0.4,0.2-0.9,0.2-1.5c0-0.8-0.1-1.5-0.4-1.9c-0.3-0.4-0.6-0.7-1-0.9c-0.3-0.1-0.7-0.2-1.3-0.2h-1.7V59.4z"/>
		<path fill="#FFFFFF" d="M752.3,58.5l1,0.1c-0.2,0.6-0.4,1-0.9,1.4c-0.4,0.3-1,0.5-1.6,0.5c-0.8,0-1.5-0.3-2-0.8
			c-0.5-0.5-0.7-1.2-0.7-2.2c0-1,0.2-1.7,0.7-2.2c0.5-0.5,1.1-0.8,1.9-0.8c0.8,0,1.4,0.3,1.9,0.8c0.5,0.5,0.7,1.2,0.7,2.2
			c0,0.1,0,0.1,0,0.3H749c0,0.6,0.2,1.1,0.5,1.4c0.3,0.3,0.7,0.5,1.2,0.5c0.4,0,0.7-0.1,0.9-0.3C751.9,59.2,752.1,58.9,752.3,58.5z
			 M749.1,56.9h3.2c0-0.5-0.2-0.8-0.4-1.1c-0.3-0.4-0.7-0.6-1.2-0.6c-0.4,0-0.8,0.1-1.1,0.4C749.3,56,749.1,56.4,749.1,56.9z"/>
		<path fill="#FFFFFF" d="M754.1,58.6l1-0.2c0.1,0.4,0.2,0.7,0.4,0.9c0.2,0.2,0.6,0.3,1,0.3c0.4,0,0.8-0.1,1-0.3
			c0.2-0.2,0.3-0.4,0.3-0.6c0-0.2-0.1-0.4-0.3-0.5c-0.1-0.1-0.5-0.2-1-0.3c-0.7-0.2-1.2-0.3-1.5-0.5c-0.3-0.1-0.5-0.3-0.6-0.5
			c-0.1-0.2-0.2-0.5-0.2-0.8c0-0.3,0.1-0.5,0.2-0.7c0.1-0.2,0.3-0.4,0.5-0.5c0.2-0.1,0.4-0.2,0.6-0.3c0.3-0.1,0.5-0.1,0.8-0.1
			c0.4,0,0.8,0.1,1.2,0.2c0.3,0.1,0.6,0.3,0.7,0.5c0.2,0.2,0.3,0.5,0.3,0.9l-0.9,0.1c0-0.3-0.2-0.5-0.4-0.7
			c-0.2-0.2-0.5-0.2-0.9-0.2c-0.4,0-0.8,0.1-1,0.2c-0.2,0.1-0.3,0.3-0.3,0.5c0,0.1,0,0.2,0.1,0.3c0.1,0.1,0.2,0.2,0.4,0.3
			c0.1,0,0.4,0.1,0.9,0.2c0.7,0.2,1.2,0.3,1.4,0.4c0.3,0.1,0.5,0.3,0.6,0.5c0.2,0.2,0.2,0.5,0.2,0.8c0,0.3-0.1,0.6-0.3,0.9
			c-0.2,0.3-0.5,0.5-0.8,0.7c-0.4,0.2-0.8,0.2-1.2,0.2c-0.7,0-1.3-0.2-1.7-0.5C754.5,59.7,754.2,59.2,754.1,58.6z"/>
		<path fill="#FFFFFF" d="M763.9,58.5l1,0.1c-0.2,0.6-0.4,1-0.9,1.4c-0.4,0.3-1,0.5-1.6,0.5c-0.8,0-1.5-0.3-2-0.8
			c-0.5-0.5-0.7-1.2-0.7-2.2c0-1,0.2-1.7,0.7-2.2c0.5-0.5,1.1-0.8,1.9-0.8c0.8,0,1.4,0.3,1.9,0.8c0.5,0.5,0.7,1.2,0.7,2.2
			c0,0.1,0,0.1,0,0.3h-4.3c0,0.6,0.2,1.1,0.5,1.4c0.3,0.3,0.7,0.5,1.2,0.5c0.4,0,0.7-0.1,0.9-0.3C763.5,59.2,763.7,58.9,763.9,58.5z
			 M760.7,56.9h3.2c0-0.5-0.2-0.8-0.4-1.1c-0.3-0.4-0.7-0.6-1.2-0.6c-0.4,0-0.8,0.1-1.1,0.4C760.9,56,760.7,56.4,760.7,56.9z"/>
		<path fill="#FFFFFF" d="M766.1,60.3v-5.7h0.9v0.8c0.4-0.6,1-0.9,1.8-0.9c0.3,0,0.7,0.1,0.9,0.2c0.3,0.1,0.5,0.3,0.6,0.5
			c0.1,0.2,0.2,0.4,0.3,0.7c0,0.2,0.1,0.5,0.1,0.9v3.5h-1v-3.5c0-0.4,0-0.7-0.1-0.9c-0.1-0.2-0.2-0.4-0.4-0.5s-0.4-0.2-0.7-0.2
			c-0.4,0-0.8,0.1-1.1,0.4c-0.3,0.3-0.4,0.8-0.4,1.5v3.1H766.1z"/>
		<path fill="#FFFFFF" d="M773.8,60.3l-2.2-5.7h1l1.2,3.4c0.1,0.4,0.3,0.8,0.4,1.1c0.1-0.3,0.2-0.7,0.4-1.1l1.3-3.5h1l-2.2,5.7
			H773.8z"/>
		<path fill="#FFFFFF" d="M777.4,57.5c0-1.1,0.3-1.8,0.9-2.3c0.5-0.4,1.1-0.6,1.8-0.6c0.8,0,1.4,0.3,1.9,0.8
			c0.5,0.5,0.7,1.2,0.7,2.1c0,0.7-0.1,1.3-0.3,1.7c-0.2,0.4-0.5,0.7-1,1c-0.4,0.2-0.9,0.3-1.4,0.3c-0.8,0-1.4-0.3-1.9-0.8
			C777.6,59.2,777.4,58.4,777.4,57.5z M778.3,57.5c0,0.7,0.2,1.3,0.5,1.6c0.3,0.4,0.7,0.5,1.2,0.5c0.5,0,0.9-0.2,1.2-0.5
			c0.3-0.4,0.5-0.9,0.5-1.7c0-0.7-0.2-1.2-0.5-1.6c-0.3-0.4-0.7-0.5-1.2-0.5c-0.5,0-0.9,0.2-1.2,0.5
			C778.5,56.2,778.3,56.7,778.3,57.5z"/>
		<path fill="#FFFFFF" d="M783.8,60.3v-7.9h1v7.9H783.8z"/>
		<path fill="#FFFFFF" d="M787.9,60.3l-2.2-5.7h1l1.2,3.4c0.1,0.4,0.3,0.8,0.4,1.1c0.1-0.3,0.2-0.7,0.4-1.1l1.3-3.5h1l-2.2,5.7
			H787.9z"/>
		<path fill="#FFFFFF" d="M791.8,53.5v-1.1h1v1.1H791.8z M791.8,60.3v-5.7h1v5.7H791.8z"/>
		<path fill="#FFFFFF" d="M794.2,60.3v-5.7h0.9v0.8c0.2-0.3,0.4-0.5,0.7-0.7c0.3-0.2,0.6-0.3,1-0.3c0.4,0,0.8,0.1,1,0.3
			c0.3,0.2,0.5,0.4,0.6,0.7c0.5-0.7,1-1,1.8-1c0.6,0,1,0.2,1.3,0.5c0.3,0.3,0.5,0.8,0.5,1.4v3.9h-1v-3.6c0-0.4,0-0.7-0.1-0.8
			c-0.1-0.2-0.2-0.3-0.3-0.4c-0.2-0.1-0.4-0.2-0.6-0.2c-0.4,0-0.7,0.1-1,0.4c-0.3,0.3-0.4,0.7-0.4,1.3v3.3h-1v-3.7
			c0-0.4-0.1-0.8-0.2-1c-0.2-0.2-0.4-0.3-0.8-0.3c-0.3,0-0.5,0.1-0.8,0.2c-0.2,0.1-0.4,0.4-0.5,0.6c-0.1,0.3-0.2,0.7-0.2,1.2v3
			H794.2z"/>
		<path fill="#FFFFFF" d="M807.3,58.5l1,0.1c-0.2,0.6-0.4,1-0.9,1.4c-0.4,0.3-1,0.5-1.6,0.5c-0.8,0-1.5-0.3-2-0.8
			c-0.5-0.5-0.7-1.2-0.7-2.2c0-1,0.2-1.7,0.7-2.2c0.5-0.5,1.1-0.8,1.9-0.8c0.8,0,1.4,0.3,1.9,0.8c0.5,0.5,0.7,1.2,0.7,2.2
			c0,0.1,0,0.1,0,0.3H804c0,0.6,0.2,1.1,0.5,1.4c0.3,0.3,0.7,0.5,1.2,0.5c0.4,0,0.7-0.1,0.9-0.3C806.9,59.2,807.1,58.9,807.3,58.5z
			 M804.1,56.9h3.2c0-0.5-0.2-0.8-0.4-1.1c-0.3-0.4-0.7-0.6-1.2-0.6c-0.4,0-0.8,0.1-1.1,0.4C804.3,56,804.1,56.4,804.1,56.9z"/>
		<path fill="#FFFFFF" d="M809.5,60.3v-5.7h0.9v0.8c0.4-0.6,1-0.9,1.8-0.9c0.3,0,0.7,0.1,0.9,0.2c0.3,0.1,0.5,0.3,0.6,0.5
			c0.1,0.2,0.2,0.4,0.3,0.7c0,0.2,0.1,0.5,0.1,0.9v3.5h-1v-3.5c0-0.4,0-0.7-0.1-0.9c-0.1-0.2-0.2-0.4-0.4-0.5
			c-0.2-0.1-0.4-0.2-0.7-0.2c-0.4,0-0.8,0.1-1.1,0.4c-0.3,0.3-0.4,0.8-0.4,1.5v3.1H809.5z"/>
		<path fill="#FFFFFF" d="M817.7,59.4l0.1,0.9c-0.3,0.1-0.5,0.1-0.7,0.1c-0.4,0-0.6-0.1-0.8-0.2c-0.2-0.1-0.3-0.3-0.4-0.4
			c-0.1-0.2-0.1-0.6-0.1-1.1v-3.3h-0.7v-0.8h0.7v-1.4l1-0.6v2h1v0.8h-1v3.3c0,0.3,0,0.5,0.1,0.5c0,0.1,0.1,0.1,0.2,0.2
			c0.1,0,0.2,0.1,0.3,0.1C817.4,59.5,817.5,59.5,817.7,59.4z"/>
		<path fill="#FFFFFF" d="M818.3,57.5c0-1.1,0.3-1.8,0.9-2.3c0.5-0.4,1.1-0.6,1.8-0.6c0.8,0,1.4,0.3,1.9,0.8
			c0.5,0.5,0.7,1.2,0.7,2.1c0,0.7-0.1,1.3-0.3,1.7c-0.2,0.4-0.5,0.7-1,1c-0.4,0.2-0.9,0.3-1.4,0.3c-0.8,0-1.4-0.3-1.9-0.8
			C818.5,59.2,818.3,58.4,818.3,57.5z M819.3,57.5c0,0.7,0.2,1.3,0.5,1.6c0.3,0.4,0.7,0.5,1.2,0.5c0.5,0,0.9-0.2,1.2-0.5
			c0.3-0.4,0.5-0.9,0.5-1.7c0-0.7-0.2-1.2-0.5-1.6s-0.7-0.5-1.2-0.5c-0.5,0-0.9,0.2-1.2,0.5C819.4,56.2,819.3,56.7,819.3,57.5z"/>
		<path fill="#FFFFFF" d="M828,60.3v-7.9h3.5c0.7,0,1.2,0.1,1.6,0.2c0.4,0.1,0.7,0.4,0.9,0.7c0.2,0.4,0.3,0.8,0.3,1.2
			c0,0.6-0.2,1-0.5,1.4c-0.4,0.4-0.9,0.6-1.7,0.7c0.3,0.1,0.5,0.3,0.6,0.4c0.3,0.3,0.6,0.6,0.9,1l1.4,2.1h-1.3l-1-1.6
			c-0.3-0.5-0.6-0.8-0.8-1.1c-0.2-0.3-0.4-0.4-0.5-0.5c-0.2-0.1-0.3-0.2-0.5-0.2c-0.1,0-0.3,0-0.6,0H829v3.5H828z M829,55.9h2.2
			c0.5,0,0.8,0,1.1-0.1c0.3-0.1,0.5-0.3,0.6-0.5c0.1-0.2,0.2-0.5,0.2-0.7c0-0.4-0.1-0.7-0.4-0.9c-0.3-0.2-0.7-0.4-1.3-0.4H829V55.9z
			"/>
		<path fill="#FFFFFF" d="M839.7,58.5l1,0.1c-0.2,0.6-0.4,1-0.9,1.4c-0.4,0.3-1,0.5-1.6,0.5c-0.8,0-1.5-0.3-2-0.8
			c-0.5-0.5-0.7-1.2-0.7-2.2c0-1,0.2-1.7,0.7-2.2c0.5-0.5,1.1-0.8,1.9-0.8c0.8,0,1.4,0.3,1.9,0.8c0.5,0.5,0.7,1.2,0.7,2.2
			c0,0.1,0,0.1,0,0.3h-4.3c0,0.6,0.2,1.1,0.5,1.4c0.3,0.3,0.7,0.5,1.2,0.5c0.4,0,0.7-0.1,0.9-0.3C839.3,59.2,839.5,58.9,839.7,58.5z
			 M836.5,56.9h3.2c0-0.5-0.2-0.8-0.4-1.1c-0.3-0.4-0.7-0.6-1.2-0.6c-0.4,0-0.8,0.1-1.1,0.4C836.7,56,836.5,56.4,836.5,56.9z"/>
		<path fill="#FFFFFF" d="M841.7,60.8l0.9,0.1c0,0.3,0.1,0.5,0.3,0.6c0.2,0.2,0.6,0.3,1,0.3c0.4,0,0.8-0.1,1-0.3
			c0.2-0.2,0.4-0.4,0.5-0.8c0-0.2,0.1-0.6,0.1-1.2c-0.4,0.5-0.9,0.7-1.6,0.7c-0.8,0-1.4-0.3-1.8-0.8c-0.4-0.6-0.6-1.2-0.6-2
			c0-0.5,0.1-1,0.3-1.5c0.2-0.5,0.5-0.8,0.9-1.1c0.4-0.3,0.8-0.4,1.3-0.4c0.7,0,1.2,0.3,1.7,0.8v-0.7h0.9v4.9c0,0.9-0.1,1.5-0.3,1.9
			c-0.2,0.4-0.5,0.7-0.9,0.9c-0.4,0.2-0.9,0.3-1.4,0.3c-0.7,0-1.2-0.2-1.6-0.5C841.9,61.9,841.7,61.4,841.7,60.8z M842.5,57.4
			c0,0.7,0.1,1.3,0.4,1.6c0.3,0.3,0.7,0.5,1.1,0.5c0.4,0,0.8-0.2,1.1-0.5c0.3-0.3,0.5-0.9,0.5-1.6c0-0.7-0.2-1.2-0.5-1.6
			c-0.3-0.4-0.7-0.5-1.1-0.5c-0.4,0-0.8,0.2-1.1,0.5C842.7,56.1,842.5,56.7,842.5,57.4z"/>
		<path fill="#FFFFFF" d="M848,53.5v-1.1h1v1.1H848z M848,60.3v-5.7h1v5.7H848z"/>
		<path fill="#FFFFFF" d="M850.1,57.5c0-1.1,0.3-1.8,0.9-2.3c0.5-0.4,1.1-0.6,1.8-0.6c0.8,0,1.4,0.3,1.9,0.8
			c0.5,0.5,0.7,1.2,0.7,2.1c0,0.7-0.1,1.3-0.3,1.7c-0.2,0.4-0.5,0.7-1,1c-0.4,0.2-0.9,0.3-1.4,0.3c-0.8,0-1.4-0.3-1.9-0.8
			C850.3,59.2,850.1,58.4,850.1,57.5z M851.1,57.5c0,0.7,0.2,1.3,0.5,1.6c0.3,0.4,0.7,0.5,1.2,0.5c0.5,0,0.9-0.2,1.2-0.5
			c0.3-0.4,0.5-0.9,0.5-1.7c0-0.7-0.2-1.2-0.5-1.6c-0.3-0.4-0.7-0.5-1.2-0.5c-0.5,0-0.9,0.2-1.2,0.5
			C851.2,56.2,851.1,56.7,851.1,57.5z"/>
		<path fill="#FFFFFF" d="M856.6,60.3v-5.7h0.9v0.8c0.4-0.6,1-0.9,1.8-0.9c0.3,0,0.7,0.1,0.9,0.2c0.3,0.1,0.5,0.3,0.6,0.5
			c0.1,0.2,0.2,0.4,0.3,0.7c0,0.2,0.1,0.5,0.1,0.9v3.5h-1v-3.5c0-0.4,0-0.7-0.1-0.9c-0.1-0.2-0.2-0.4-0.4-0.5
			c-0.2-0.1-0.4-0.2-0.7-0.2c-0.4,0-0.8,0.1-1.1,0.4c-0.3,0.3-0.4,0.8-0.4,1.5v3.1H856.6z"/>
		<path fill="#FFFFFF" d="M866.4,59.6c-0.4,0.3-0.7,0.5-1,0.6c-0.3,0.1-0.7,0.2-1.1,0.2c-0.6,0-1.1-0.2-1.4-0.5
			c-0.3-0.3-0.5-0.7-0.5-1.2c0-0.3,0.1-0.5,0.2-0.8c0.1-0.2,0.3-0.4,0.5-0.6c0.2-0.1,0.4-0.2,0.7-0.3c0.2,0,0.5-0.1,0.9-0.1
			c0.8-0.1,1.4-0.2,1.7-0.3c0-0.1,0-0.2,0-0.3c0-0.4-0.1-0.7-0.3-0.8c-0.2-0.2-0.6-0.3-1.1-0.3c-0.5,0-0.8,0.1-1,0.2
			c-0.2,0.2-0.4,0.4-0.5,0.8l-0.9-0.1c0.1-0.4,0.2-0.7,0.4-1c0.2-0.2,0.5-0.4,0.9-0.6c0.4-0.1,0.8-0.2,1.3-0.2
			c0.5,0,0.9,0.1,1.2,0.2c0.3,0.1,0.5,0.3,0.7,0.4c0.1,0.2,0.2,0.4,0.3,0.7c0,0.2,0,0.5,0,0.9v1.3c0,0.9,0,1.5,0.1,1.7
			c0,0.2,0.1,0.5,0.2,0.7h-1C866.5,60.1,866.4,59.9,866.4,59.6z M866.3,57.4c-0.4,0.1-0.9,0.3-1.6,0.4c-0.4,0.1-0.7,0.1-0.8,0.2
			c-0.2,0.1-0.3,0.2-0.4,0.3c-0.1,0.1-0.1,0.3-0.1,0.5c0,0.3,0.1,0.5,0.3,0.6c0.2,0.2,0.5,0.3,0.9,0.3c0.4,0,0.7-0.1,1-0.2
			c0.3-0.2,0.5-0.4,0.6-0.7c0.1-0.2,0.2-0.5,0.2-1V57.4z"/>
		<path fill="#FFFFFF" d="M868.8,60.3v-7.9h1v7.9H868.8z"/>
	</g>
	<path fill="#FFFFFF" d="M614.6,1.3v67.5h101.2V1.3H614.6z M683.6,23l0.8-2.6l0.8,2.6h2.7l-2.2,1.6l0.8,2.5l-2.1-1.6l-2.1,1.6
		l0.8-2.5l-2.2-1.6L683.6,23z M639.6,34.1l2.7,0l0.8-2.6l0.8,2.6h2.7l-2.2,1.6l0.8,2.5l-2.1-1.6l-2.1,1.6l0.8-2.5L639.6,34.1z
		 M648.2,49.2l-2.1-1.6l-2.1,1.6l0.8-2.5l-2.2-1.6l2.7,0l0.8-2.6l0.8,2.6h2.7l-2.2,1.6L648.2,49.2z M647.4,24.6l0.8,2.5l-2.1-1.6
		l-2.1,1.6l0.8-2.5l-2.2-1.6l2.7,0l0.8-2.6l0.8,2.6h2.7L647.4,24.6z M653.4,14.9l0.8-2.6l0.8,2.6h2.7l-2.2,1.6l0.8,2.5l-2.1-1.6
		L652,19l0.8-2.5l-2.2-1.6L653.4,14.9z M656.3,57.3l-2.1-1.6l-2.1,1.6l0.8-2.5l-2.2-1.6l2.7,0l0.8-2.6l0.8,2.5h2.7l-2.2,1.6
		L656.3,57.3z M664.4,12l0.8-2.6l0.8,2.5h2.7l-2.2,1.6l0.8,2.5l-2.1-1.6l-2.1,1.6l0.8-2.5l-2.2-1.6L664.4,12z M667.4,60.3l-2.1-1.6
		l-2.1,1.6l0.8-2.5l-2.2-1.6l2.7,0l0.8-2.6l0.8,2.6h2.7l-2.2,1.6L667.4,60.3z M678.4,57.3l-2.1-1.6l-2.1,1.6l0.8-2.5l-2.2-1.6l2.7,0
		l0.8-2.6l0.8,2.5h2.7l-2.2,1.6L678.4,57.3z M677.6,16.5l0.8,2.5l-2.1-1.6l-2.1,1.6l0.8-2.5l-2.2-1.6l2.7,0l0.8-2.6l0.8,2.6h2.7
		L677.6,16.5z M686.5,49.2l-2.1-1.6l-2.1,1.6l0.8-2.5l-2.2-1.6l2.7,0l0.8-2.6l0.8,2.6h2.7l-2.2,1.6L686.5,49.2z M689.4,38.1
		l-2.1-1.6l-2.1,1.6l0.8-2.5l-2.2-1.6l2.7,0l0.8-2.6l0.8,2.6h2.7l-2.2,1.6L689.4,38.1z"/>
</g>
</svg>
