<svg xmlns="http://www.w3.org/2000/svg" viewBox="0 0 2010.16 598.08">
  <title>logo-present</title>
  <g>
    <g>
      <path d="M198.26,582.57h37c22.68,0,33.6-10.92,33.6-34.44V400.29c0-23.52-10.92-34.44-33.6-34.44H108.38v-79H249.5c73.08,0,109.2,36.12,109.2,109.2V552.33c0,73.08-36.12,109.2-109.2,109.2H198.26V874.88H108.38V582.57h89.88Z" transform="translate(-108.38 -281.89)" style="fill: #323233"/>
      <path d="M668.26,675V874.88H578.38V676.65c0-26-11.76-37.8-37.8-37.8H500.26v236H410.38v-588H558.22c73.08,0,109.2,36.12,109.2,109.2V507c0,52.08-18.48,77.28-51.24,90.72C653.14,607.77,668.26,630.45,668.26,675ZM543.94,366.69H500.26v194h40.32c25.2,0,37-11.76,37-36.12V400.29C577.54,377.61,566.62,366.69,543.94,366.69Z" transform="translate(-108.38 -281.89)" style="fill: #323233"/>
      <path d="M928.3,286.89v81.48h-110V534.69H924.1v81.48H818.26V793.41H930v81.48H728.38v-588H928.3Z" transform="translate(-108.38 -281.89)" style="fill: #323233"/>
      <path d="M1240.42,675v95.76c0,73.08-36.12,109.2-109.2,109.2h-39.48c-73.08,0-108.36-36.12-108.36-108.36V647.28h87.36v121c0,22.68,10.92,33.6,34.44,33.6h11.76c23.52,0,34.44-10.92,34.44-33.6V687.61c0-24.36-8.4-35.28-25.2-47.88l-90.72-66.36c-40.32-28.56-52.08-56.28-52.08-101.64V391.09c0-73.08,36.12-109.2,109.2-109.2h37.8q108.36,0,108.36,108.36V496.93h-88.2V393.61c0-22.68-10.92-33.6-33.6-33.6H1106c-22.68,0-33.6,10.92-33.6,33.6v65.52c0,24.36,8.4,36.12,25.2,47.88l90.72,66.36C1227.82,601.93,1240.42,627.13,1240.42,675Z" transform="translate(-108.38 -281.89)" style="fill: #323233"/>
      <path d="M1497.3,286.89v81.48h-110V534.69H1493.1v81.48H1387.26V793.41H1499v81.48h-201.6v-588H1497.3Z" transform="translate(-108.38 -281.89)" style="fill: #323233"/>
      <path d="M1726.74,874.88l-91.56-395.64L1636,582.57V874.88h-80.64v-588h105l84,362.88-0.84-98.28V286.89h80.64v588h-97.44Z" transform="translate(-108.38 -281.89)" style="fill: #323233"/>
      <path d="M1948,874.88V368.37h-80.64V286.89h251.16v81.48H2037.9V874.88H1948Z" transform="translate(-108.38 -281.89)" style="fill: #323233"/>
    </g>
    <rect y="119" width="90" height="149" rx="10" ry="10" style="fill: #ed7625"/>
  </g>
</svg>
